<?xml version="1.0" standalone="no"?>
<!DOCTYPE svg PUBLIC "-//W3C//DTD SVG 20010904//EN"
 "http://www.w3.org/TR/2001/REC-SVG-20010904/DTD/svg10.dtd">
<svg version="1.0" xmlns="http://www.w3.org/2000/svg"
 width="720.000000pt" height="960.000000pt" viewBox="0 0 720.000000 960.000000"
 preserveAspectRatio="xMidYMid meet">

<g transform="translate(0.000000,960.000000) scale(0.100000,-0.100000)"
fill="#000000" stroke="none">
<path d="M310 9115 c0 -13 58 -15 460 -15 402 0 460 2 460 15 0 13 -58 15
-460 15 -402 0 -460 -2 -460 -15z"/>
<path d="M1610 9025 c0 -13 58 -15 460 -15 402 0 460 2 460 15 0 13 -58 15
-460 15 -402 0 -460 -2 -460 -15z"/>
<path d="M610 8615 c0 -13 58 -15 460 -15 402 0 460 2 460 15 0 13 -58 15
-460 15 -402 0 -460 -2 -460 -15z"/>
<path d="M4561 8441 c-12 -8 -13 -67 -8 -371 3 -199 7 -364 10 -366 6 -6 175
-10 179 -4 2 3 1 91 -2 195 -3 105 -4 191 -4 193 1 2 13 -17 28 -42 14 -24 46
-68 70 -96 25 -29 71 -94 103 -144 31 -50 61 -94 66 -97 4 -3 20 -5 35 -4 15
1 50 3 78 3 l51 2 11 51 c7 28 9 56 5 62 -3 5 -9 142 -12 303 -3 161 -10 296
-14 301 -9 8 -158 22 -167 15 -11 -8 -11 -237 -1 -314 6 -45 8 -84 5 -87 -12
-12 -139 170 -225 321 l-44 78 -46 0 c-26 0 -59 2 -75 5 -16 3 -35 1 -43 -4z
m514 -199 l-48 -47 43 53 c23 29 45 50 48 47 3 -3 -16 -27 -43 -53z m-351 7
c-16 -17 -47 -44 -69 -61 -24 -18 -15 -6 24 31 68 64 95 83 45 30z m-64 7 c0
-2 -8 -10 -17 -17 -16 -13 -17 -12 -4 4 13 16 21 21 21 13z m-50 -51 c-7 -9
-15 -13 -18 -10 -3 2 1 11 8 20 7 9 15 13 18 10 3 -2 -1 -11 -8 -20z m199 -14
c-15 -23 -49 -44 -57 -36 -8 7 44 55 59 55 5 0 4 -8 -2 -19z m-129 -90 c-10
-20 -30 -37 -30 -27 0 6 33 46 38 46 1 0 -2 -9 -8 -19z m195 -71 c-10 -11 -23
-20 -29 -20 -6 1 0 10 13 20 30 26 39 26 16 0z m-215 -3 c0 -2 -12 -14 -27
-28 l-28 -24 24 28 c23 25 31 32 31 24z m470 -111 c0 -3 -4 -8 -10 -11 -5 -3
-10 -1 -10 4 0 6 5 11 10 11 6 0 10 -2 10 -4z"/>
<path d="M5470 8436 c-101 -37 -186 -117 -227 -212 -27 -64 -20 -223 13 -304
58 -145 236 -239 398 -209 79 14 113 33 181 98 84 81 98 115 103 243 3 83 1
117 -12 148 -9 22 -13 40 -10 40 8 0 -30 51 -62 84 -41 40 -123 93 -174 111
-51 18 -162 19 -210 1z m190 -39 c0 -2 -12 -14 -27 -28 l-28 -24 24 28 c23 25
31 32 31 24z m70 -40 c0 -2 -12 -14 -27 -28 l-28 -24 24 28 c23 25 31 32 31
24z m-307 -71 c-26 -30 -50 -53 -52 -50 -4 4 89 104 97 104 2 0 -18 -24 -45
-54z m357 50 c0 -3 -15 -15 -32 -27 l-33 -23 24 27 c22 24 41 35 41 23z m30
-40 c0 -3 -15 -15 -32 -27 l-33 -23 24 27 c22 24 41 35 41 23z m-122 -49 c53
-38 75 -101 71 -206 -4 -68 -8 -83 -29 -106 -40 -43 -73 -55 -152 -55 -73 0
-74 0 -110 39 -20 22 -39 53 -43 70 -4 17 -11 33 -16 36 -14 9 -11 122 5 158
7 18 23 40 34 50 59 53 174 59 240 14z m107 -27 c-10 -11 -21 -18 -23 -15 -3
3 3 12 14 20 27 20 30 18 9 -5z m56 -103 l-24 -22 19 27 c10 14 21 24 23 22 3
-3 -6 -15 -18 -27z m-26 -37 c-3 -5 -11 -10 -16 -10 -6 0 -7 5 -4 10 3 6 11
10 16 10 6 0 7 -4 4 -10z m30 -38 c-14 -16 -32 -37 -40 -48 -15 -19 -15 -19
-8 1 9 27 67 96 71 85 2 -5 -8 -22 -23 -38z m-63 -154 c-105 -120 -154 -168
-115 -113 12 17 50 62 85 101 36 39 78 88 93 109 16 20 31 32 33 26 2 -6 -41
-61 -96 -123z m-422 8 c0 -2 -8 -10 -17 -17 -16 -13 -17 -12 -4 4 13 16 21 21
21 13z m100 -81 c-18 -19 -36 -32 -39 -29 -6 5 57 64 68 64 3 0 -10 -16 -29
-35z m69 3 c-2 -2 -17 -14 -34 -28 l-30 -25 29 32 c16 18 32 31 34 28 3 -3 3
-6 1 -7z m120 -5 c-29 -39 -53 -63 -63 -63 -5 0 8 18 29 40 41 42 57 52 34 23z
m-109 -48 c-7 -9 -15 -13 -19 -10 -3 3 1 10 9 15 21 14 24 12 10 -5z"/>
<path d="M1234 8345 c-13 -33 15 -45 102 -45 l84 0 0 -289 c0 -295 1 -306 38
-294 9 4 12 71 12 294 l0 289 89 0 c66 0 92 4 101 15 10 12 10 18 0 30 -19 22
-418 22 -426 0z"/>
<path d="M1722 8348 c-14 -14 -17 -604 -3 -626 5 -8 17 -12 27 -10 18 3 19 18
24 204 4 144 9 205 18 217 20 24 76 47 116 47 108 0 145 -76 155 -320 l6 -145
25 0 25 0 -1 145 c-1 159 -16 235 -60 303 -47 71 -147 96 -233 57 -24 -11 -45
-20 -47 -20 -2 0 -4 35 -6 77 -2 60 -6 78 -18 81 -9 1 -21 -3 -28 -10z"/>
<path d="M3760 8325 c-18 -21 -5 -45 25 -45 20 0 25 5 25 24 0 13 -7 27 -16
30 -21 8 -20 8 -34 -9z"/>
<path d="M2375 8241 c-45 -11 -87 -36 -116 -68 -30 -32 -59 -85 -59 -107 0 -9
-11 -16 -27 -18 -34 -4 -45 -37 -15 -45 15 -4 22 -19 31 -72 17 -106 51 -159
124 -196 75 -37 151 -32 224 17 61 41 110 168 64 168 -13 0 -27 -17 -45 -54
-34 -69 -74 -96 -143 -96 -93 0 -163 79 -163 182 l0 48 175 0 c160 0 175 2
184 19 11 20 0 75 -25 123 -38 74 -132 119 -209 99z m112 -71 c33 -20 50 -44
63 -91 l9 -29 -150 0 c-97 0 -149 4 -149 10 0 19 27 64 52 87 49 46 122 56
175 23z"/>
<path d="M2682 8238 c-14 -14 -17 -494 -3 -516 5 -8 17 -12 27 -10 18 3 19 17
24 198 6 220 8 226 81 259 70 32 140 23 178 -23 17 -20 50 -21 58 -1 7 20 -22
52 -72 77 -53 27 -127 27 -189 -1 -27 -11 -50 -21 -52 -21 -1 0 -4 10 -6 22
-3 26 -28 34 -46 16z"/>
<path d="M3267 8240 c-64 -12 -118 -57 -152 -127 -23 -47 -35 -62 -52 -62 -12
-1 -24 -5 -27 -10 -9 -15 4 -39 23 -44 14 -3 19 -18 23 -64 17 -182 184 -276
334 -188 47 28 91 91 96 140 3 26 0 30 -21 30 -20 0 -27 -8 -39 -43 -20 -61
-78 -102 -144 -102 -98 0 -155 60 -165 172 l-6 58 175 0 c196 0 205 3 193 62
-12 55 -58 130 -95 153 -41 27 -90 35 -143 25z m123 -76 c27 -23 60 -81 60
-105 0 -5 -67 -9 -150 -9 -169 0 -169 0 -121 67 54 75 152 97 211 47z"/>
<path d="M4019 8241 c-77 -24 -138 -92 -139 -156 -1 -84 87 -133 218 -121 87
9 135 -12 140 -61 4 -42 -20 -86 -61 -112 -99 -61 -218 -17 -254 94 -7 22 -16
30 -34 30 -20 0 -24 -4 -22 -29 4 -47 54 -118 103 -146 95 -53 240 -21 299 66
37 54 35 123 -4 163 -35 37 -89 54 -164 50 -120 -5 -153 8 -166 62 -5 21 0 34
24 61 54 62 163 75 208 25 25 -26 54 -83 47 -89 -2 -3 3 -11 11 -18 13 -11 19
-11 32 3 38 38 -44 166 -117 180 -41 9 -87 8 -121 -2z"/>
<path d="M3756 8225 c-3 -9 -6 -124 -6 -255 0 -249 4 -270 44 -254 15 6 16 33
14 263 -3 252 -3 256 -24 259 -13 2 -24 -4 -28 -13z"/>
<path d="M1922 7153 c3 -310 3 -318 23 -318 20 0 20 8 23 318 l2 317 -25 0
-25 0 2 -317z"/>
<path d="M3630 7420 l0 -49 -82 -3 c-77 -3 -83 -5 -86 -25 -3 -22 0 -23 70
-24 40 -1 79 -1 85 0 10 1 13 -56 15 -241 3 -235 4 -243 23 -243 19 0 20 8 25
240 l5 240 88 3 c85 3 88 4 85 25 -3 21 -9 22 -90 25 l-88 3 0 49 c0 47 -2 50
-25 50 -23 0 -25 -3 -25 -50z"/>
<path d="M5120 7420 l0 -49 -82 -3 c-77 -3 -83 -5 -86 -25 -3 -22 -1 -23 82
-23 l86 0 2 -242 c3 -235 4 -243 23 -243 19 0 20 8 25 240 l5 240 88 3 c85 3
87 3 87 27 0 25 -1 25 -90 25 l-90 0 0 50 c0 47 -2 50 -25 50 -23 0 -25 -3
-25 -50z"/>
<path d="M3357 7364 c-4 -4 -7 -18 -7 -30 0 -13 -4 -26 -10 -29 -5 -3 -10 -2
-10 4 0 22 -86 51 -151 51 -56 0 -72 -4 -112 -30 -156 -104 -152 -395 7 -475
79 -39 155 -31 228 26 20 16 39 29 42 29 3 0 6 -18 6 -40 0 -36 2 -40 25 -40
l25 0 -2 267 c-3 232 -5 268 -18 271 -9 1 -19 0 -23 -4z m-97 -74 c22 -11 51
-38 65 -59 23 -35 26 -47 24 -130 -2 -106 -16 -135 -88 -186 -35 -24 -52 -30
-91 -29 -64 2 -105 32 -136 98 -53 115 -12 258 91 314 31 18 92 14 135 -8z"/>
<path d="M1584 7346 c-50 -22 -100 -73 -123 -125 -15 -36 -27 -51 -43 -53 -31
-4 -38 -47 -9 -55 16 -4 21 -16 27 -62 3 -31 12 -69 19 -86 73 -179 332 -179
401 0 18 50 14 75 -14 75 -13 0 -23 -12 -32 -40 -25 -76 -104 -129 -173 -116
-80 15 -132 80 -144 177 l-6 49 161 0 c88 0 173 5 188 10 25 10 26 13 20 58
-8 62 -52 131 -101 159 -46 26 -122 30 -171 9z m165 -69 c24 -22 51 -75 51
-99 0 -10 -32 -12 -145 -10 -88 2 -145 7 -145 13 0 18 28 64 53 87 49 46 140
51 186 9z"/>
<path d="M2218 7350 c-61 -18 -127 -89 -143 -153 -5 -17 -16 -27 -36 -31 -21
-4 -29 -11 -29 -26 0 -11 3 -20 8 -20 22 -1 34 -23 43 -81 20 -125 89 -196
199 -206 112 -11 213 64 227 166 5 37 3 41 -15 41 -15 0 -27 -13 -42 -47 -28
-63 -55 -91 -102 -104 -53 -14 -104 -2 -145 34 -42 37 -63 85 -63 146 l0 46
161 -3 c189 -3 213 4 202 61 -16 80 -64 150 -120 173 -35 15 -102 17 -145 4z
m118 -50 c22 -9 74 -53 74 -63 0 -1 4 -17 9 -35 l10 -32 -150 0 c-114 0 -149
3 -149 13 0 28 54 90 93 108 48 21 74 23 113 9z"/>
<path d="M2504 7346 c-8 -21 3 -51 109 -296 73 -171 96 -216 112 -218 18 -2
35 30 128 249 60 139 106 258 103 265 -3 8 -14 14 -24 14 -14 0 -37 -44 -106
-207 -49 -115 -92 -212 -96 -216 -4 -4 -48 88 -98 205 -87 204 -113 244 -128
204z"/>
<path d="M3965 7345 c-86 -46 -124 -119 -126 -240 -1 -74 2 -93 26 -140 33
-67 83 -110 147 -126 110 -26 205 18 255 118 24 49 28 70 28 138 0 69 -4 88
-30 140 -44 88 -93 119 -193 123 -56 2 -85 -1 -107 -13z m169 -55 c113 -55
143 -258 53 -354 -61 -64 -157 -68 -227 -10 -55 47 -82 152 -60 234 33 127
130 181 234 130z"/>
<path d="M4352 7098 c3 -248 4 -263 22 -266 10 -2 22 2 27 10 5 7 9 97 9 201
0 205 0 206 67 240 70 36 139 29 183 -18 27 -29 42 -31 61 -9 12 15 8 21 -29
54 -64 58 -155 67 -234 25 l-46 -24 -6 24 c-5 18 -13 25 -31 25 l-25 0 2 -262z"/>
<path d="M5452 7339 c-45 -23 -90 -79 -110 -138 -15 -44 -15 -158 0 -202 36
-106 134 -176 232 -166 136 14 216 111 216 262 0 108 -39 186 -118 236 -59 37
-153 41 -220 8z m190 -58 c58 -37 89 -97 90 -178 2 -114 -45 -191 -129 -212
-120 -31 -212 57 -215 202 -3 170 128 268 254 188z"/>
<path d="M959 6707 c-88 -33 -148 -88 -189 -171 -29 -61 -23 -124 21 -206 34
-65 57 -90 204 -225 111 -102 143 -146 151 -209 6 -39 4 -45 -16 -56 -44 -23
-85 -4 -168 79 -77 78 -77 78 -103 62 -21 -13 -94 -68 -122 -91 -13 -11 30
-83 89 -148 75 -83 145 -117 239 -116 96 0 144 17 216 72 95 73 104 89 104
185 0 75 -3 88 -36 153 -20 39 -45 82 -55 94 -31 38 -135 141 -203 199 -75 65
-96 94 -93 134 3 38 15 53 49 60 55 10 144 -46 157 -99 9 -34 29 -30 90 19 72
57 80 70 62 105 -22 42 -97 106 -161 137 -68 34 -178 44 -236 22z m79 -15 c-1
-4 -56 -59 -120 -121 -91 -88 -118 -109 -118 -93 0 12 12 35 28 52 77 85 226
199 210 162z m72 1 c0 -4 -35 -42 -78 -83 -42 -41 -105 -106 -139 -144 -56
-63 -83 -77 -83 -41 0 15 148 170 223 234 44 38 77 52 77 34z m-150 -12 c0
-10 -74 -83 -122 -121 -20 -15 -28 -18 -28 -8 0 23 69 97 109 118 43 23 41 22
41 11z m193 -35 c-77 -86 -98 -106 -114 -106 -25 0 -69 -39 -69 -61 0 -19
-104 -139 -120 -139 -5 0 -11 7 -14 16 -14 36 287 337 326 326 18 -4 17 -7 -9
-36z m74 -2 c5 -16 -96 -114 -113 -107 -22 8 -17 21 33 74 43 47 72 58 80 33z
m43 -40 c0 -22 -77 -94 -101 -94 -28 0 -24 9 25 63 44 47 76 61 76 31z m46
-35 c7 -11 -34 -58 -79 -91 -21 -15 -31 -17 -41 -9 -11 9 -4 21 38 61 52 50
69 59 82 39z m-532 -67 c-5 -29 0 -55 20 -103 33 -80 33 -81 20 -86 -30 -11
-68 158 -48 211 11 28 14 17 8 -22z m556 26 c0 -12 -78 -88 -92 -88 -15 0 -8
11 35 55 43 45 57 53 57 33z m-378 -145 c-11 -15 -29 -37 -41 -47 -12 -11 -21
-25 -21 -33 0 -18 -26 -17 -33 2 -8 19 92 130 106 116 6 -6 2 -19 -11 -38z
m48 -11 c0 -20 -103 -126 -113 -116 -12 12 82 134 103 134 6 0 10 -8 10 -18z
m44 -37 c6 -17 -97 -125 -121 -125 -26 0 -12 32 38 86 54 56 73 65 83 39z m20
-64 c-40 -68 -107 -124 -117 -98 -6 14 113 138 125 131 5 -3 1 -18 -8 -33z
m-214 2 c0 -13 -3 -13 -15 -3 -8 7 -12 16 -9 21 8 13 24 1 24 -18z m274 -11
c2 -4 -25 -38 -61 -75 -47 -50 -68 -65 -77 -58 -9 8 2 27 47 76 57 61 79 75
91 57z m-244 -22 c0 -5 -2 -10 -4 -10 -3 0 -8 5 -11 10 -3 6 -1 10 4 10 6 0
11 -4 11 -10z m286 -24 c3 -9 -13 -32 -42 -58 -65 -60 -82 -71 -101 -64 -13 5
-3 20 47 71 65 66 86 77 96 51z m35 -54 c-12 -23 -107 -112 -120 -112 -31 0
-18 28 35 76 59 54 105 73 85 36z m39 -22 c0 -6 -26 -42 -57 -80 -43 -51 -61
-66 -70 -58 -22 18 -14 34 46 91 57 55 81 68 81 47z m30 -43 c0 -17 -108 -157
-121 -157 -16 0 -9 37 13 66 32 43 91 104 100 104 4 0 8 -6 8 -13z m17 -91
c-42 -54 -118 -127 -127 -121 -17 11 22 70 110 168 24 27 25 27 34 8 7 -16 3
-28 -17 -55z m53 -13 c0 -9 -26 -44 -57 -77 -32 -34 -98 -110 -148 -169 -76
-91 -115 -126 -115 -101 0 5 112 164 135 191 34 40 170 173 177 173 4 0 8 -7
8 -17z m-4 -104 c-8 -12 -50 -59 -94 -104 -44 -45 -88 -94 -97 -109 -10 -14
-26 -26 -36 -26 -23 0 -24 13 -2 31 9 8 34 38 56 68 22 29 72 87 111 129 60
63 71 72 74 54 2 -12 -3 -31 -12 -43z m-530 -6 c-30 -32 -38 -35 -46 -23 -5 8
-10 17 -10 20 0 6 84 48 89 44 2 -2 -13 -20 -33 -41z m87 23 c-23 -38 -70 -96
-80 -100 -6 -3 -17 2 -24 10 -9 12 -2 23 39 65 28 28 56 48 62 44 5 -3 7 -12
3 -19z m13 -73 c-45 -64 -53 -73 -65 -73 -23 0 -9 39 30 84 29 32 45 44 52 37
7 -7 2 -22 -17 -48z m444 9 c0 -30 -58 -111 -87 -124 -16 -7 -41 -21 -56 -31
-36 -24 -43 -17 -16 14 71 83 143 159 151 159 4 0 8 -8 8 -18z m-386 2 c13 -5
7 -18 -31 -65 -47 -60 -63 -71 -63 -44 0 12 68 115 76 115 1 0 9 -3 18 -6z
m50 -46 c-2 -22 -74 -118 -90 -118 -19 0 -18 30 3 60 44 67 90 97 87 58z m64
-39 c-53 -70 -95 -112 -106 -105 -18 11 -15 19 28 84 31 46 47 62 68 64 36 4
38 -6 10 -43z"/>
<path d="M4115 6709 c-22 -4 -52 -6 -67 -3 -20 4 -29 0 -37 -15 -13 -24 -15
-73 -2 -53 5 8 11 -16 15 -64 4 -42 3 -80 -1 -83 -4 -3 -9 -24 -10 -46 -2 -29
0 -36 7 -25 7 12 10 8 10 -15 1 -28 1 -29 13 -9 7 11 27 36 45 56 19 20 47 56
64 80 l30 43 -32 -37 c-75 -89 -99 -112 -106 -105 -15 15 41 92 139 188 44 44
62 56 79 51 19 -5 17 -9 -28 -48 -26 -24 -46 -45 -44 -48 7 -6 110 91 110 104
0 6 -31 11 -72 11 l-73 2 95 8 c52 5 105 8 118 7 23 -3 22 -4 -11 -38 -18 -19
-60 -60 -93 -91 -32 -30 -94 -92 -137 -137 -43 -45 -83 -80 -88 -76 -5 3 -10
-19 -10 -48 l-2 -53 -7 40 -7 40 -2 -46 c0 -25 5 -54 13 -65 9 -12 11 -23 5
-30 -5 -6 -10 -22 -11 -35 -1 -30 12 -151 19 -162 9 -14 23 4 23 30 0 19 24
48 93 115 l92 91 -83 -73 c-45 -40 -85 -76 -88 -81 -9 -15 -24 1 -24 25 0 17
25 46 87 102 48 44 95 87 105 96 10 10 28 16 40 14 13 -3 27 -5 33 -5 5 -1 -9
-20 -30 -43 l-40 -43 45 43 c36 33 53 42 80 42 l35 -1 -28 -24 c-15 -14 -24
-25 -19 -25 5 0 17 9 27 20 10 11 29 20 42 20 14 0 21 4 18 10 -3 6 1 10 9 10
23 0 20 -6 -16 -43 -65 -65 -71 -80 -10 -25 38 36 68 55 77 52 20 -8 20 -10
-16 -58 -30 -39 -29 -39 16 8 41 43 50 48 66 38 15 -10 19 -9 19 2 0 20 -101
35 -232 35 -113 0 -136 4 -119 25 5 6 11 36 13 66 l3 55 50 7 c28 3 97 7 155
7 140 1 150 8 150 100 0 94 -9 104 -106 112 -106 10 -339 9 -389 -2z m43 -35
l53 -7 -58 -61 c-32 -34 -72 -78 -89 -99 l-30 -38 4 38 c3 21 18 58 35 83 27
41 28 43 5 23 -45 -42 -53 -23 -11 29 26 32 26 32 2 11 -31 -28 -39 -29 -39
-3 0 23 28 41 55 35 11 -2 44 -7 73 -11z m265 9 c4 -4 -5 -20 -20 -37 -24 -26
-24 -28 -4 -11 14 11 33 28 43 38 20 19 28 20 53 11 13 -6 7 -17 -37 -62 l-53
-56 68 62 c37 34 74 62 81 62 22 0 37 -25 24 -38 -9 -9 -9 -12 0 -12 25 0 12
-64 -19 -95 -38 -37 -84 -45 -76 -13 6 20 6 20 -17 -1 -13 -13 -35 -21 -55
-21 l-33 0 17 28 18 27 -29 -27 c-26 -23 -51 -33 -77 -29 -4 0 3 13 17 28 14
15 24 29 22 31 -3 2 -18 -10 -34 -27 -20 -21 -39 -31 -60 -31 -18 0 -32 -6
-36 -16 -4 -12 -2 -15 9 -10 9 3 15 0 15 -9 0 -9 -6 -12 -15 -9 -9 4 -15 1
-15 -7 0 -7 -17 -31 -37 -54 l-38 -40 37 34 c21 19 40 33 42 30 2 -2 6 -28 9
-58 5 -53 5 -55 -38 -95 -93 -89 -125 -116 -136 -116 -14 0 -3 37 23 75 12 17
15 24 7 18 -22 -22 -26 -15 -25 41 1 53 2 54 96 158 91 99 242 238 259 238 4
0 11 -3 14 -7z m167 -142 c0 -12 -20 -25 -27 -18 -7 7 6 27 18 27 5 0 9 -4 9
-9z m-350 -107 c0 -8 -4 -12 -10 -9 -5 3 -10 10 -10 16 0 5 5 9 10 9 6 0 10
-7 10 -16z"/>
<path d="M4120 6655 c-7 -8 -8 -15 -2 -15 5 0 15 7 22 15 7 8 8 15 2 15 -5 0
-15 -7 -22 -15z"/>
<path d="M4528 6603 c-18 -21 -31 -43 -25 -43 2 0 13 14 25 30 25 33 24 41 0
13z"/>
<path d="M4153 6320 c-28 -28 -48 -50 -45 -50 4 0 31 23 60 50 29 28 49 50 45
50 -4 0 -31 -23 -60 -50z"/>
<path d="M4095 6330 c-16 -16 -27 -31 -24 -33 2 -2 17 11 32 30 36 41 31 43
-8 3z"/>
<path d="M1476 6702 c-9 -2 -16 -9 -17 -15 -3 -36 -2 -103 4 -192 4 -55 12
-183 17 -285 15 -284 30 -358 90 -445 84 -122 238 -156 401 -90 128 51 177
117 185 250 3 39 9 135 16 215 12 156 14 495 4 528 -4 11 -17 23 -29 26 -30 8
-178 6 -197 -2 -14 -6 -14 -25 2 -182 12 -117 17 -228 15 -335 -3 -141 -6
-166 -26 -213 -25 -55 -70 -102 -100 -102 -32 0 -70 39 -82 83 -42 158 -62
307 -68 527 l-6 225 -96 5 c-53 3 -104 4 -113 2z m74 -30 c0 -4 -13 -16 -30
-25 l-30 -18 0 25 c0 22 4 26 30 26 17 0 30 -4 30 -8z m494 -60 c-51 -46 -59
-51 -62 -34 -6 37 74 107 106 94 12 -4 1 -19 -44 -60z m-429 50 c-22 -19 -113
-82 -119 -82 -3 0 -6 7 -6 15 0 21 78 75 109 75 14 0 21 -4 16 -8z m50 -24
c-4 -14 -27 -41 -53 -61 -26 -19 -60 -49 -76 -66 -38 -39 -46 -39 -46 2 0 23
8 41 28 59 48 44 140 101 150 93 2 -2 0 -14 -3 -27z m340 12 c-10 -11 -22 -20
-27 -20 -4 0 -8 9 -8 20 0 15 7 20 27 20 25 0 26 0 8 -20z m145 -9 c0 -22 -7
-30 -75 -86 -26 -22 -54 -46 -61 -52 -18 -18 -24 -16 -24 10 0 24 66 99 115
129 38 23 45 23 45 -1z m-4 -83 c-2 -17 -9 -34 -14 -37 -4 -3 -36 -27 -69 -53
-58 -45 -73 -50 -73 -22 0 22 133 144 158 144 2 0 1 -14 -2 -32z m-486 7 c0
-19 -40 -58 -92 -91 -20 -13 -39 -28 -43 -34 -9 -15 -35 -12 -35 3 0 16 139
137 157 137 7 0 13 -7 13 -15z m-21 -101 c-25 -27 -124 -104 -134 -104 -3 0
-5 9 -5 21 0 21 34 55 104 101 49 33 72 22 35 -18z m497 -1 c-8 -17 -42 -54
-76 -83 l-60 -52 0 34 c0 27 8 42 38 69 87 81 131 94 98 32z m31 10 c-3 -10
-5 -4 -5 12 0 17 2 24 5 18 2 -7 2 -21 0 -30z m-507 -50 c0 -24 -9 -35 -50
-63 -19 -13 -50 -37 -69 -53 -22 -19 -37 -25 -44 -18 -16 16 -2 36 70 94 72
59 93 68 93 40z m490 -20 c0 -20 -17 -42 -67 -89 -38 -35 -71 -64 -75 -64 -15
0 -8 48 10 68 20 24 121 112 127 112 3 0 5 -12 5 -27z m-490 -60 c0 -27 -9
-36 -85 -86 -53 -35 -71 -42 -73 -31 -6 26 4 40 68 87 66 50 90 58 90 30z
m490 -24 c0 -13 -29 -51 -75 -98 l-75 -76 0 37 c0 32 7 43 67 97 37 34 71 61
75 61 5 0 8 -10 8 -21z m-490 -53 c0 -18 -12 -31 -47 -52 -27 -15 -59 -38 -73
-51 -30 -28 -40 -29 -40 -5 0 22 50 71 110 106 25 14 46 26 48 26 1 0 2 -11 2
-24z m490 -42 c0 -32 -9 -45 -77 -110 -42 -40 -78 -73 -78 -71 -1 1 0 20 3 42
4 33 17 52 72 107 38 38 71 68 74 68 3 0 6 -16 6 -36z m-486 -43 c-5 -10 -39
-42 -76 -70 l-68 -51 -6 25 c-7 29 19 58 95 107 48 30 72 25 55 -11z m477 -72
c-11 -28 -148 -166 -156 -157 -14 14 29 84 86 140 61 60 90 67 70 17z m-473
10 c-4 -27 -130 -117 -137 -98 -5 16 104 119 125 119 10 0 14 -8 12 -21z m32
11 c0 -5 -2 -10 -4 -10 -3 0 -8 5 -11 10 -3 6 -1 10 4 10 6 0 11 -4 11 -10z
m7 -62 c-3 -8 -6 -5 -6 6 -1 11 2 17 5 13 3 -3 4 -12 1 -19z m-27 -10 c0 -16
-19 -38 -60 -70 -33 -27 -65 -48 -70 -48 -6 0 -10 12 -10 28 1 22 12 34 67 70
36 23 68 42 70 42 2 0 3 -10 3 -22z m458 -41 c-3 -29 -27 -57 -172 -195 -137
-131 -175 -162 -198 -162 -15 0 -28 4 -28 10 0 5 48 56 107 112 58 57 143 140
187 185 45 45 87 82 94 82 9 1 12 -10 10 -32z m-421 -19 c-3 -7 -5 -2 -5 12 0
14 2 19 5 13 2 -7 2 -19 0 -25z m-19 -9 c3 -15 -108 -109 -128 -109 -6 0 -10
9 -10 19 0 22 106 114 124 108 6 -2 12 -10 14 -18z m-171 -71 c-3 -7 -5 -2 -5
12 0 14 2 19 5 13 2 -7 2 -19 0 -25z m183 18 c0 -12 -110 -106 -124 -106 -15
0 -3 29 22 52 22 22 91 68 100 68 1 0 2 -6 2 -14z m231 -29 c-10 -9 -11 -8 -5
6 3 10 9 15 12 12 3 -3 0 -11 -7 -18z m182 -9 c-9 -48 -11 -52 -103 -129 -101
-86 -115 -95 -160 -102 -33 -6 -26 3 105 128 77 74 145 135 152 135 9 0 11
-10 6 -32z m-387 -3 c4 -8 -8 -26 -28 -43 -18 -17 -46 -42 -61 -56 -30 -28
-42 -32 -51 -17 -11 17 6 41 63 86 61 49 69 52 77 30z m-186 -24 c0 -10 7 -35
15 -55 21 -51 8 -45 -15 7 -22 47 -25 67 -10 67 6 0 10 -8 10 -19z m227 -22
c8 -8 -1 -22 -35 -51 -26 -22 -55 -49 -65 -59 -10 -11 -24 -19 -33 -19 -23 0
-29 30 -8 45 11 7 38 31 61 54 43 42 61 49 80 30z m83 -23 c0 -15 -146 -141
-163 -141 -46 0 -20 39 83 124 21 17 80 30 80 17z m194 -67 c-16 -17 -38 -35
-49 -41 -11 -5 -1 9 22 31 49 48 70 55 27 10z"/>
<path d="M2660 6696 c-256 -60 -426 -272 -406 -503 11 -119 45 -262 78 -327
20 -39 83 -106 99 -106 5 0 9 -7 9 -15 0 -8 7 -15 15 -15 8 0 15 -4 15 -9 0
-6 30 -25 67 -43 65 -32 73 -33 203 -36 166 -5 253 9 314 49 51 34 51 32 -1
121 -45 77 -58 83 -118 52 -91 -46 -242 -29 -325 37 -90 71 -136 186 -126 314
8 105 20 135 81 198 58 59 107 87 157 87 16 0 27 3 25 8 -8 12 172 0 194 -14
16 -9 38 10 84 73 55 74 55 75 -33 115 -55 25 -251 34 -332 14z m90 0 c0 -2
-98 -104 -218 -227 -129 -131 -223 -219 -230 -215 -21 13 31 80 178 227 145
145 231 219 257 219 7 0 13 -2 13 -4z m80 -15 c0 -5 -55 -58 -122 -118 -68
-59 -159 -146 -203 -193 -205 -217 -227 -236 -211 -178 3 13 111 130 239 261
207 210 238 237 265 237 18 0 32 -4 32 -9z m60 1 c0 -5 -15 -23 -32 -39 -18
-17 -50 -49 -72 -72 -26 -28 -47 -41 -65 -41 -23 0 -17 9 59 80 78 73 110 93
110 72z m-245 -24 c-16 -12 -94 -85 -172 -162 -140 -137 -166 -157 -121 -93
41 60 283 276 308 276 9 0 2 -9 -15 -21z m316 5 c-5 -10 -34 -42 -64 -71 -44
-44 -60 -53 -83 -50 l-29 3 65 67 c49 51 72 67 93 68 23 0 26 -3 18 -17z
m-432 -66 c-164 -154 -159 -151 -134 -82 6 17 5 16 -10 -3 -9 -13 -33 -63 -52
-110 -46 -114 -63 -131 -24 -22 30 81 76 162 90 157 4 -1 25 15 47 35 37 36
118 86 139 87 6 0 -20 -27 -56 -62z m485 55 c7 -11 -98 -115 -119 -118 -27 -4
-16 20 34 74 46 49 73 63 85 44z m-10 -59 c-36 -57 -49 -72 -61 -73 -21 0 -15
12 29 57 49 50 57 54 32 16z m-533 -324 c-8 -36 -22 -56 -83 -111 -40 -37 -76
-67 -80 -68 -5 0 -8 9 -8 21 0 18 169 213 178 205 1 -2 -2 -23 -7 -47z m-186
-11 c-4 -18 -8 -34 -11 -37 -6 -7 -5 35 2 53 10 27 15 18 9 -16z m174 -90 c0
-28 -11 -42 -63 -87 -70 -60 -79 -64 -84 -39 -2 11 24 44 69 88 40 38 74 70
76 70 2 0 3 -15 2 -32z m11 -93 c0 -19 -4 -35 -8 -35 -4 0 -32 -22 -61 -50
-29 -27 -57 -50 -62 -50 -5 0 -9 12 -9 27 0 20 16 43 57 85 32 32 63 58 70 58
8 0 13 -13 13 -35z m-31 -149 c-55 -53 -73 -66 -80 -55 -18 29 -7 49 58 109
66 60 67 61 80 38 11 -21 8 -28 -58 -92z m95 27 c5 -12 -11 -35 -58 -82 -62
-62 -67 -65 -83 -48 -16 16 -14 20 47 82 67 68 84 76 94 48z m37 -59 c11 -13
4 -23 -47 -69 -56 -52 -83 -63 -91 -39 -4 12 100 124 115 124 5 0 15 -7 23
-16z m53 -42 c3 -5 -22 -35 -54 -67 -54 -54 -61 -58 -76 -44 -14 14 -10 21 38
67 50 49 80 63 92 44z m380 -61 c-40 -63 -81 -110 -99 -115 -37 -10 -33 0 49
120 36 53 40 56 52 39 12 -16 11 -23 -2 -44z m-234 35 c19 -3 59 -2 88 3 29 4
52 4 52 -1 0 -4 12 -5 26 -2 24 6 23 2 -27 -71 -50 -71 -90 -107 -105 -92 -11
11 6 44 41 80 19 20 35 39 35 43 0 4 7 12 15 18 12 8 -7 11 -79 11 -67 0 -99
4 -108 14 -11 11 -10 12 7 8 11 -3 36 -8 55 -11z m-100 -8 c0 -6 -25 -36 -56
-65 -47 -45 -59 -52 -71 -41 -13 10 -7 20 40 65 53 51 87 67 87 41z m54 -15
c8 -8 -94 -113 -111 -113 -37 0 -20 29 56 93 34 28 43 32 55 20z m66 -17 c0
-8 -24 -38 -53 -68 -43 -43 -58 -53 -77 -48 -22 5 -20 8 35 68 54 58 95 79 95
48z m280 -35 c0 -8 -47 -37 -83 -50 -36 -14 -34 -3 10 53 l37 48 18 -22 c10
-12 18 -25 18 -29z m-210 35 c0 -3 -23 -32 -50 -65 -37 -44 -57 -61 -75 -61
-14 0 -25 2 -25 5 0 15 116 125 131 125 11 0 19 -2 19 -4z m156 -101 c-11 -8
-29 -15 -40 -15 -17 1 -15 4 9 15 40 18 55 18 31 0z"/>
<path d="M3571 6678 c-14 -23 -14 -23 8 -4 22 20 25 26 13 26 -4 0 -13 -10
-21 -22z"/>
<path d="M3678 6693 c6 -2 18 -2 25 0 6 3 1 5 -13 5 -14 0 -19 -2 -12 -5z"/>
<path d="M3445 6679 c-11 -16 -1 -19 13 -3 7 8 8 14 3 14 -5 0 -13 -5 -16 -11z"/>
<path d="M3493 6675 c0 -11 4 -12 14 -4 7 6 13 13 13 15 0 2 -6 4 -13 4 -8 0
-14 -7 -14 -15z"/>
<path d="M3685 6638 c-54 -57 -58 -60 53 40 7 6 10 12 5 12 -5 0 -31 -24 -58
-52z"/>
<path d="M3761 6686 c12 -10 60 -16 54 -6 -3 5 -18 10 -32 10 -15 0 -24 -2
-22 -4z"/>
<path d="M3345 6640 c-16 -7 -17 -9 -3 -9 9 -1 20 4 23 9 7 11 7 11 -20 0z"/>
<path d="M3449 6633 c-13 -16 -12 -17 4 -4 9 7 17 15 17 17 0 8 -8 3 -21 -13z"/>
<path d="M3619 6633 c-13 -16 -12 -17 4 -4 9 7 17 15 17 17 0 8 -8 3 -21 -13z"/>
<path d="M3374 6608 l-29 -33 33 29 c30 28 37 36 29 36 -2 0 -16 -15 -33 -32z"/>
<path d="M3504 6618 l-19 -23 23 19 c21 18 27 26 19 26 -2 0 -12 -10 -23 -22z"/>
<path d="M3847 6599 c-19 -18 -23 -27 -12 -25 15 2 51 44 44 50 -2 2 -17 -10
-32 -25z"/>
<path d="M4002 6595 c0 -16 2 -22 5 -12 2 9 2 23 0 30 -3 6 -5 -1 -5 -18z"/>
<path d="M3257 6585 c-15 -14 -24 -25 -19 -25 9 0 52 37 52 45 0 8 -4 6 -33
-20z"/>
<path d="M3565 6590 c-3 -5 -1 -10 4 -10 6 0 11 5 11 10 0 6 -2 10 -4 10 -3 0
-8 -4 -11 -10z"/>
<path d="M3773 6565 c-17 -19 -28 -35 -23 -35 4 0 20 16 34 35 15 19 25 35 23
35 -2 0 -17 -16 -34 -35z"/>
<path d="M3369 6563 l-24 -28 28 24 c25 23 32 31 24 31 -2 0 -14 -12 -28 -27z"/>
<path d="M3454 6568 l-19 -23 23 19 c21 18 27 26 19 26 -2 0 -12 -10 -23 -22z"/>
<path d="M3709 6573 c-13 -16 -12 -17 4 -4 9 7 17 15 17 17 0 8 -8 3 -21 -13z"/>
<path d="M3597 6553 c-10 -9 -9 -23 1 -23 5 0 9 7 9 15 0 17 -1 18 -10 8z"/>
<path d="M3796 6543 c-6 -14 -5 -15 5 -6 7 7 10 15 7 18 -3 3 -9 -2 -12 -12z"/>
<path d="M3511 6537 c-8 -10 -7 -14 2 -14 8 0 14 6 14 14 0 7 -1 13 -2 13 -2
0 -8 -6 -14 -13z"/>
<path d="M3275 6520 c-3 -5 -1 -10 4 -10 6 0 11 5 11 10 0 6 -2 10 -4 10 -3 0
-8 -4 -11 -10z"/>
<path d="M3275 6468 l-60 -63 63 60 c58 55 67 65 59 65 -1 0 -29 -28 -62 -62z"/>
<path d="M3628 6523 c7 -3 16 -2 19 1 4 3 -2 6 -13 5 -11 0 -14 -3 -6 -6z"/>
<path d="M3675 6520 c-7 -12 12 -12 40 0 18 8 17 9 -7 9 -15 1 -30 -3 -33 -9z"/>
<path d="M3473 6503 c-15 -5 -17 -23 -4 -23 5 0 11 7 15 15 3 8 4 15 3 14 -1
0 -8 -3 -14 -6z"/>
<path d="M3768 6503 c7 -3 16 -2 19 1 4 3 -2 6 -13 5 -11 0 -14 -3 -6 -6z"/>
<path d="M3196 6483 c-6 -14 -5 -15 5 -6 7 7 10 15 7 18 -3 3 -9 -2 -12 -12z"/>
<path d="M3240 6490 c-8 -5 -12 -12 -9 -15 4 -3 12 1 19 10 14 17 11 19 -10 5z"/>
<path d="M3145 6458 l-16 -33 20 25 c20 24 26 40 16 40 -2 0 -12 -15 -20 -32z"/>
<path d="M3430 6469 c0 -5 5 -7 10 -4 6 3 10 8 10 11 0 2 -4 4 -10 4 -5 0 -10
-5 -10 -11z"/>
<path d="M3175 6435 c-16 -49 -16 -51 0 -31 15 19 20 46 10 46 -3 0 -8 -7 -10
-15z"/>
<path d="M3389 6433 c-13 -16 -12 -17 4 -4 16 13 21 21 13 21 -2 0 -10 -8 -17
-17z"/>
<path d="M3350 6389 c-16 -30 -8 -31 13 -3 10 13 13 24 8 24 -6 0 -15 -9 -21
-21z"/>
<path d="M4012 6380 c0 -14 2 -19 5 -12 2 6 2 18 0 25 -3 6 -5 1 -5 -13z"/>
<path d="M3095 6339 c-4 -17 -4 -33 -1 -36 3 -4 6 1 6 10 0 10 5 17 10 17 13
0 13 27 1 34 -5 4 -12 -8 -16 -25z"/>
<path d="M3160 6350 c-9 -6 -10 -10 -3 -10 6 0 15 5 18 10 8 12 4 12 -15 0z"/>
<path d="M3307 6343 c-10 -9 -9 -23 2 -23 5 0 11 7 15 15 5 15 -5 20 -17 8z"/>
<path d="M3126 6315 c-9 -26 -7 -32 5 -12 6 10 9 21 6 23 -2 3 -7 -2 -11 -11z"/>
<path d="M3264 6298 l-19 -23 23 19 c21 18 27 26 19 26 -2 0 -12 -10 -23 -22z"/>
<path d="M3160 6263 c-25 -25 -34 -38 -20 -28 23 17 76 75 68 75 -2 0 -24 -21
-48 -47z"/>
<path d="M3300 6265 c0 -16 -8 -37 -17 -48 -10 -11 -13 -17 -6 -14 6 4 13 1
16 -5 2 -7 8 9 12 35 4 26 5 51 1 54 -3 4 -6 -6 -6 -22z"/>
<path d="M3081 6264 c0 -11 3 -14 6 -6 3 7 2 16 -1 19 -3 4 -6 -2 -5 -13z"/>
<path d="M4573 6257 c-28 -31 -40 -57 -14 -29 30 30 34 28 26 -15 -7 -41 -27
-63 -59 -63 -16 0 -17 3 -8 12 25 25 10 28 -19 4 -18 -15 -43 -26 -60 -26 -32
0 -32 5 0 45 8 11 0 5 -20 -12 -21 -20 -45 -33 -62 -33 -32 0 -32 2 -10 38 16
25 15 25 -18 -5 -35 -33 -79 -44 -79 -21 0 7 21 35 47 63 27 27 13 16 -30 -25
-42 -41 -77 -77 -77 -79 0 -2 11 6 25 19 l25 23 0 -24 c0 -15 -12 -37 -30 -54
-16 -16 -30 -34 -30 -39 0 -6 10 1 21 17 29 38 47 35 52 -10 2 -26 4 -17 5 25
l2 62 150 0 c147 0 152 1 175 24 22 22 24 31 18 73 -3 26 -7 49 -8 50 -1 2
-11 -7 -22 -20z"/>
<path d="M3219 6243 l-24 -28 28 24 c25 23 32 31 24 31 -2 0 -14 -12 -28 -27z"/>
<path d="M3112 6185 c0 -16 2 -22 5 -12 2 9 2 23 0 30 -3 6 -5 -1 -5 -18z"/>
<path d="M3092 6180 c0 -14 2 -19 5 -12 2 6 2 18 0 25 -3 6 -5 1 -5 -13z"/>
<path d="M3234 6168 l-19 -23 23 19 c12 11 22 21 22 23 0 8 -8 2 -26 -19z"/>
<path d="M3090 6130 c0 -8 5 -22 10 -30 9 -13 10 -13 10 0 0 8 -5 22 -10 30
-9 13 -10 13 -10 0z"/>
<path d="M3286 6122 c6 -4 14 -20 18 -36 9 -37 15 -30 9 12 -4 21 -11 32 -22
32 -10 0 -12 -3 -5 -8z"/>
<path d="M4136 6064 c-15 -14 -26 -27 -24 -29 2 -3 17 9 33 25 35 36 30 39 -9
4z"/>
<path d="M3190 6050 c-8 -5 -12 -12 -9 -15 4 -3 12 1 19 10 14 17 11 19 -10 5z"/>
<path d="M3306 6042 c6 -4 16 -16 23 -27 10 -17 12 -17 7 -2 -3 10 -6 23 -6
28 0 5 -8 9 -17 9 -11 0 -14 -3 -7 -8z"/>
<path d="M4090 6022 c0 -6 -12 -17 -27 -24 -17 -8 -29 -23 -31 -37 -2 -15 0
-21 7 -17 7 5 11 -5 11 -28 0 -25 -4 -36 -15 -36 -11 0 -15 -12 -15 -50 0 -40
3 -48 15 -44 17 7 20 24 5 24 -5 0 -10 11 -10 25 0 26 15 34 23 13 3 -8 6 -5
6 5 1 11 10 32 22 48 11 16 16 29 10 29 -6 0 -11 -4 -11 -10 0 -5 -4 -10 -10
-10 -19 0 -10 63 12 87 12 13 18 26 15 30 -4 3 -7 1 -7 -5z"/>
<path d="M4131 5985 c-18 -25 -30 -45 -28 -45 7 0 69 81 65 86 -3 2 -19 -16
-37 -41z"/>
<path d="M3234 5988 l-19 -23 25 20 c14 11 27 21 29 22 2 2 0 3 -6 3 -5 0 -18
-10 -29 -22z"/>
<path d="M3320 5974 c-17 -15 -28 -29 -25 -32 3 -3 13 4 21 17 9 12 22 20 30
17 8 -3 14 1 14 9 0 20 -4 19 -40 -11z"/>
<path d="M4184 5937 c-52 -54 -53 -56 -7 -13 47 45 73 53 73 23 0 -13 -160
-177 -173 -177 -17 0 -5 49 18 70 14 13 25 27 25 32 0 5 -11 -2 -24 -16 -13
-15 -27 -26 -33 -26 -5 0 -7 -15 -6 -32 4 -41 -12 -71 -26 -48 -7 9 -9 0 -6
-29 2 -27 9 -47 18 -53 22 -12 210 -29 220 -19 4 4 37 4 75 0 89 -10 202 0
209 18 3 7 16 13 30 13 13 0 21 -4 18 -10 -3 -5 1 -10 9 -10 22 0 24 8 32 118
l7 102 -197 0 c-178 0 -197 -2 -203 -17 -3 -10 -24 -38 -47 -62 -40 -44 -39
-43 17 7 39 34 67 52 85 52 l25 0 -23 -25 c-13 -14 -21 -28 -18 -31 4 -3 16 8
29 25 18 24 30 31 57 31 l34 0 -32 -42 -32 -43 41 44 c34 36 45 42 66 37 17
-4 23 -11 19 -19 -4 -7 2 -3 15 7 14 13 25 16 32 9 10 -10 0 -25 -92 -140 -45
-57 -50 -60 -72 -39 -8 8 -18 11 -23 6 -9 -8 -76 -15 -128 -12 l-29 2 24 28
24 27 -31 -28 c-32 -29 -80 -42 -90 -25 -4 5 7 23 22 40 16 17 22 27 14 23 -8
-5 -21 -17 -28 -27 -19 -26 -32 -22 -32 11 0 24 16 44 88 110 48 44 89 76 90
71 2 -6 7 -10 11 -10 7 0 -4 98 -12 106 -2 2 -30 -25 -63 -59z m380 -134 c-54
-68 -63 -85 -21 -38 20 22 36 43 37 48 0 15 50 7 50 -8 0 -8 -4 -15 -9 -15 -5
0 -12 -8 -16 -17 -19 -55 -102 -113 -98 -68 1 18 0 18 -10 4 -16 -21 -51 -39
-76 -39 -17 0 -13 10 30 68 75 99 89 112 121 112 l29 0 -37 -47z m56 -94 c0
-14 -7 -19 -25 -19 -29 0 -33 17 -8 36 22 15 33 9 33 -17z m-560 -6 c0 -20 -3
-24 -11 -16 -7 7 -9 19 -6 27 10 24 17 19 17 -11z m463 -40 c-7 -2 -21 -2 -30
0 -10 3 -4 5 12 5 17 0 24 -2 18 -5z"/>
<path d="M3120 5971 c0 -6 5 -13 10 -16 6 -3 10 1 10 9 0 9 -4 16 -10 16 -5 0
-10 -4 -10 -9z"/>
<path d="M3360 5938 c0 -6 -8 -21 -17 -32 -18 -20 -17 -20 2 -6 33 25 46 50
25 50 -5 0 -10 -5 -10 -12z"/>
<path d="M3256 5914 c-23 -23 -20 -30 4 -9 11 10 20 20 20 22 0 7 -9 2 -24
-13z"/>
<path d="M3141 5909 c-1 -9 7 -23 17 -30 15 -12 16 -12 6 1 -6 8 -14 22 -17
30 -5 13 -6 12 -6 -1z"/>
<path d="M3400 5900 c0 -5 5 -10 10 -10 6 0 10 5 10 10 0 6 -4 10 -10 10 -5 0
-10 -4 -10 -10z"/>
<path d="M3425 5880 c-3 -6 1 -7 9 -4 18 7 21 14 7 14 -6 0 -13 -4 -16 -10z"/>
<path d="M3307 5873 c-4 -3 -7 -11 -7 -17 0 -6 5 -5 12 2 6 6 9 14 7 17 -3 3
-9 2 -12 -2z"/>
<path d="M3355 5825 c-27 -24 -47 -44 -43 -45 4 0 29 20 55 45 62 58 53 58
-12 0z"/>
<path d="M3790 5851 c0 -25 6 -27 13 -6 4 8 2 17 -3 20 -6 4 -10 -3 -10 -14z"/>
<path d="M6210 5852 c-19 -10 -43 -34 -52 -53 -33 -64 -19 -113 44 -159 37
-27 48 -30 82 -24 76 12 116 58 116 131 0 55 -29 97 -77 111 -54 16 -72 15
-113 -6z m90 -18 c0 -7 -53 -76 -86 -113 -21 -23 -44 -22 -44 2 0 21 91 117
111 117 10 0 19 -3 19 -6z m-91 -31 c-13 -16 -27 -32 -31 -37 -5 -6 -8 -6 -8
1 0 15 40 63 52 63 7 0 1 -12 -13 -27z m138 16 c8 -8 7 -19 -6 -40 -28 -46
-99 -119 -115 -119 -23 0 -27 15 -8 36 10 10 37 45 61 77 46 60 51 63 68 46z
m-19 -111 c-31 -45 -51 -64 -68 -66 -23 -2 -21 1 16 35 23 21 51 53 64 71 12
18 24 31 27 28 3 -3 -15 -33 -39 -68z m35 3 c-3 -11 -14 -28 -26 -38 -21 -18
-21 -18 -6 7 9 14 19 31 23 38 11 18 15 15 9 -7z"/>
<path d="M3183 5845 c0 -8 11 -25 24 -37 13 -12 23 -17 23 -12 0 5 -9 16 -19
24 -11 7 -18 17 -15 21 2 4 1 10 -4 13 -5 3 -9 -1 -9 -9z"/>
<path d="M3492 5850 c4 -22 20 -36 42 -37 21 -2 21 -2 1 9 -11 6 -26 19 -33
27 -10 13 -12 13 -10 1z"/>
<path d="M3267 5828 c-10 -11 -17 -22 -14 -24 2 -2 12 5 22 16 23 26 16 33 -8
8z"/>
<path d="M3528 5843 c6 -2 18 -2 25 0 6 3 1 5 -13 5 -14 0 -19 -2 -12 -5z"/>
<path d="M3838 5842 c7 -5 11 -15 9 -23 -2 -8 -2 -10 1 -6 2 4 11 2 20 -5 12
-10 12 -7 -2 15 -10 15 -23 27 -30 27 -7 0 -6 -3 2 -8z"/>
<path d="M3603 5833 c9 -2 25 -2 35 0 9 3 1 5 -18 5 -19 0 -27 -2 -17 -5z"/>
<path d="M3435 5819 c-4 -6 -5 -12 -2 -15 2 -3 7 2 10 11 7 17 1 20 -8 4z"/>
<path d="M4397 5761 c-38 -52 -41 -57 -12 -26 42 47 69 84 64 89 -2 1 -26 -27
-52 -63z"/>
<path d="M3700 5810 c-24 -15 -7 -18 20 -3 14 7 18 13 10 13 -8 0 -22 -4 -30
-10z"/>
<path d="M3535 5772 l-29 -37 29 25 c17 14 32 28 35 31 3 3 12 9 20 12 11 4 9
5 -5 5 -11 1 -33 -16 -50 -36z"/>
<path d="M3650 5800 c0 -5 7 -7 15 -4 8 4 15 8 15 10 0 2 -7 4 -15 4 -8 0 -15
-4 -15 -10z"/>
<path d="M3474 5778 l-19 -23 23 19 c21 18 27 26 19 26 -2 0 -12 -10 -23 -22z"/>
<path d="M3240 5781 c0 -5 5 -13 10 -16 6 -3 10 -2 10 4 0 5 -4 13 -10 16 -5
3 -10 2 -10 -4z"/>
<path d="M3374 5758 l-19 -23 23 19 c21 18 27 26 19 26 -2 0 -12 -10 -23 -22z"/>
<path d="M3609 5763 c-13 -16 -12 -17 4 -4 9 7 17 15 17 17 0 8 -8 3 -21 -13z"/>
<path d="M4237 5762 c-10 -10 -17 -22 -17 -27 0 -4 9 2 20 15 11 13 20 25 20
27 0 7 -8 2 -23 -15z"/>
<path d="M3279 5753 c-13 -15 -12 -15 9 -4 23 12 28 21 13 21 -5 0 -15 -7 -22
-17z"/>
<path d="M4299 5737 c-54 -69 -51 -78 4 -12 21 25 34 45 30 45 -4 0 -20 -15
-34 -33z"/>
<path d="M3890 5731 c-13 -25 -13 -41 1 -18 6 9 14 15 20 12 5 -3 6 1 3 9 -8
21 -11 20 -24 -3z"/>
<path d="M3300 5731 c0 -5 5 -13 10 -16 6 -3 10 -2 10 4 0 5 -4 13 -10 16 -5
3 -10 2 -10 -4z"/>
<path d="M3342 5714 c-7 -8 -8 -14 -3 -14 10 0 25 19 20 25 -2 1 -10 -3 -17
-11z"/>
<path d="M3404 5716 c-3 -8 -17 -17 -32 -21 -20 -5 -23 -8 -11 -16 19 -12 32
-11 24 1 -3 6 1 10 9 10 9 0 16 6 16 14 0 8 6 17 13 19 9 4 9 6 -1 6 -7 1 -15
-5 -18 -13z"/>
<path d="M3709 5713 c-13 -16 -12 -17 4 -4 16 13 21 21 13 21 -2 0 -10 -8 -17
-17z"/>
<path d="M3779 5713 c-13 -16 -12 -17 4 -4 16 13 21 21 13 21 -2 0 -10 -8 -17
-17z"/>
<path d="M3861 5704 c0 -11 3 -14 6 -6 3 7 2 16 -1 19 -3 4 -6 -2 -5 -13z"/>
<path d="M3469 5693 c-13 -16 -12 -17 4 -4 9 7 17 15 17 17 0 8 -8 3 -21 -13z"/>
<path d="M3746 5675 c-11 -8 -39 -15 -62 -15 -24 0 -45 -4 -48 -9 -9 -13 160
1 172 15 4 4 -6 4 -22 0 -26 -6 -28 -5 -17 8 17 20 2 20 -23 1z"/>
<path d="M3835 5680 c-3 -5 -1 -10 4 -10 6 0 11 5 11 10 0 6 -2 10 -4 10 -3 0
-8 -4 -11 -10z"/>
<path d="M3436 5661 c-4 -5 3 -7 14 -4 23 6 26 13 6 13 -8 0 -17 -4 -20 -9z"/>
<path d="M3480 5650 c-21 -7 -18 -8 18 -9 26 -1 41 3 37 9 -7 11 -19 11 -55 0z"/>
<path d="M1873 4883 c-7 -2 -13 -11 -13 -18 0 -12 80 -163 184 -345 28 -50 31
-65 36 -165 5 -109 5 -110 30 -110 25 0 25 1 30 110 5 100 8 115 36 165 17 30
64 114 104 185 40 72 77 136 82 143 12 14 -6 42 -27 42 -7 0 -59 -81 -116
-180 -57 -99 -106 -180 -109 -180 -3 0 -50 80 -105 177 -55 97 -104 178 -110
179 -5 1 -16 0 -22 -3z"/>
<path d="M3460 4560 c0 -206 4 -321 10 -321 6 -1 16 -2 23 -3 9 -1 13 48 17
203 l5 204 38 30 c31 26 47 31 92 31 46 1 58 -3 84 -28 16 -16 37 -50 46 -75
20 -59 37 -228 29 -295 -7 -56 8 -82 40 -70 13 5 16 23 16 113 -1 264 -53 383
-180 412 -46 10 -78 5 -132 -23 l-38 -18 0 80 c0 79 0 80 -25 80 l-25 0 0
-320z"/>
<path d="M4313 4773 c-7 -2 -13 -18 -13 -35 0 -29 -1 -30 -18 -15 -58 52 -178
63 -248 22 -108 -63 -155 -231 -104 -368 54 -144 218 -183 339 -81 l31 26 0
-40 c0 -43 21 -62 46 -41 11 9 14 62 14 263 0 271 -3 287 -47 269z m-128 -64
c22 -6 56 -28 77 -49 l38 -38 0 -104 c0 -99 -2 -107 -28 -144 -30 -41 -103
-84 -143 -84 -14 0 -45 10 -69 23 -60 30 -94 96 -94 183 0 84 42 170 99 201
45 26 64 27 120 12z"/>
<path d="M2441 4754 c-149 -64 -184 -318 -63 -448 64 -68 174 -86 260 -42 26
13 55 32 64 43 67 74 84 235 35 330 -31 60 -57 87 -109 114 -45 23 -138 25
-187 3z m141 -44 c45 -13 100 -74 116 -129 28 -91 8 -188 -48 -243 -88 -83
-231 -46 -272 72 -7 19 -13 67 -13 105 0 91 35 157 98 186 48 21 68 23 119 9z"/>
<path d="M2813 4754 c-10 -26 6 -274 21 -331 8 -29 25 -71 37 -95 44 -80 158
-112 244 -68 48 24 43 25 47 -2 2 -17 10 -23 28 -23 l25 0 3 256 c2 218 0 258
-13 269 -8 7 -22 10 -30 6 -13 -4 -15 -36 -15 -204 0 -193 -1 -199 -22 -219
-37 -33 -64 -43 -117 -43 -41 0 -54 5 -78 29 -47 46 -64 116 -70 289 -6 152
-6 152 -30 152 -13 0 -26 -7 -30 -16z"/>
<path d="M4420 4755 c-19 -22 189 -508 219 -513 17 -3 25 6 42 45 11 26 27 61
34 78 66 145 156 369 153 383 -2 9 -12 17 -22 17 -14 0 -26 -17 -46 -65 -15
-36 -37 -86 -48 -112 -12 -26 -22 -49 -22 -52 0 -2 -15 -37 -34 -78 -18 -40
-36 -83 -40 -95 -4 -13 -10 -23 -14 -23 -4 0 -47 96 -97 212 -49 116 -95 213
-101 215 -6 2 -17 -3 -24 -12z"/>
<path d="M5046 4756 c-53 -20 -104 -71 -132 -133 -17 -37 -29 -52 -46 -55 -29
-4 -30 -30 0 -43 18 -8 22 -18 22 -51 0 -133 96 -234 221 -234 96 1 159 43
199 133 17 38 19 51 10 63 -21 24 -37 16 -54 -31 -31 -80 -105 -125 -181 -111
-72 14 -134 98 -135 184 l0 42 169 0 c192 0 208 5 195 64 -11 54 -48 118 -87
149 -44 36 -119 46 -181 23z m156 -69 c25 -20 58 -82 58 -107 0 -6 -54 -10
-150 -10 -82 0 -150 2 -150 5 0 22 33 76 64 103 32 28 43 32 94 32 44 -1 63
-6 84 -23z"/>
<path d="M1607 4014 c-4 -4 -7 -29 -7 -56 l0 -48 -86 0 c-83 0 -85 -1 -82 -22
3 -21 9 -23 86 -26 l82 -3 0 -238 c0 -243 2 -256 38 -244 9 4 12 61 12 243 l0
239 88 3 c82 3 87 4 90 26 3 21 1 22 -87 22 l-90 0 -3 52 c-2 38 -7 54 -18 56
-9 1 -19 0 -23 -4z"/>
<path d="M2667 4013 c-4 -3 -7 -28 -7 -54 l0 -48 -82 -3 c-75 -3 -83 -5 -83
-23 0 -18 8 -20 83 -23 l82 -3 0 -233 c0 -195 2 -236 15 -246 12 -10 18 -10
30 0 13 10 15 51 15 246 l0 234 85 0 c84 0 85 0 85 25 0 25 -1 25 -85 25 l-85
0 0 49 c0 35 -4 51 -16 55 -20 8 -29 8 -37 -1z"/>
<path d="M3366 4004 c-3 -9 -6 -150 -6 -314 0 -314 3 -337 43 -307 13 10 17
34 19 128 l3 117 145 -124 c80 -69 152 -123 160 -122 8 2 16 11 18 20 3 15
-10 31 -74 85 -223 188 -233 198 -220 208 8 6 73 44 145 85 92 52 131 80 131
93 0 37 -33 27 -167 -51 l-138 -80 -2 116 c-2 65 -5 127 -8 140 -6 26 -40 30
-49 6z"/>
<path d="M4597 4014 c-4 -4 -7 -29 -7 -56 l0 -48 -85 0 c-84 0 -85 0 -85 -25
0 -25 1 -25 85 -25 l85 0 0 -240 0 -240 25 0 25 0 0 240 0 240 90 0 c89 0 90
0 90 25 0 25 -1 25 -89 25 l-90 0 -3 52 c-2 38 -7 54 -18 56 -9 1 -19 0 -23
-4z"/>
<path d="M4857 4013 c-4 -3 -7 -147 -7 -320 0 -276 2 -314 16 -320 32 -12 37
13 35 195 -1 115 2 187 9 203 25 53 109 85 170 65 47 -15 87 -76 101 -151 6
-33 12 -115 13 -183 1 -96 5 -125 16 -132 32 -20 42 12 42 134 -2 179 -23 270
-79 336 -51 61 -139 77 -220 40 -24 -10 -44 -16 -46 -12 -2 4 -4 36 -6 72 -1
35 -5 68 -7 72 -6 10 -28 10 -37 1z"/>
<path d="M1950 3897 c-52 -17 -112 -83 -133 -146 -45 -141 5 -296 116 -353 61
-31 152 -29 209 5 48 28 93 84 109 138 13 46 14 145 0 195 -35 129 -172 202
-301 161z m160 -68 c128 -72 124 -331 -6 -385 -128 -54 -243 39 -244 197 0 79
34 157 83 188 43 28 117 28 167 0z"/>
<path d="M3014 3896 c-96 -42 -148 -134 -148 -266 -1 -72 3 -92 25 -135 14
-28 44 -64 68 -82 38 -30 49 -33 109 -33 75 0 140 24 165 60 15 21 35 12 22
-11 -4 -5 -4 -21 -1 -35 5 -19 12 -25 29 -22 l22 3 3 268 2 267 -25 0 c-14 0
-26 -6 -26 -12 -1 -7 -2 -17 -4 -23 -1 -5 -3 -14 -3 -18 -1 -5 -14 0 -29 11
-61 42 -149 54 -209 28z m173 -72 c55 -42 66 -66 68 -161 3 -108 -5 -131 -60
-182 -49 -45 -79 -56 -135 -48 -160 21 -193 306 -46 399 41 25 134 21 173 -8z"/>
<path d="M3924 3899 c-69 -16 -164 -116 -164 -173 0 -9 -11 -16 -27 -18 -34
-4 -45 -37 -15 -45 19 -5 32 -39 32 -87 0 -30 44 -119 71 -146 13 -12 42 -31
64 -40 55 -25 157 -15 209 20 76 52 120 200 52 174 -9 -3 -16 -14 -16 -23 0
-26 -49 -96 -80 -115 -42 -24 -120 -21 -161 7 -45 30 -79 98 -79 159 l0 48
174 0 c198 0 200 1 185 69 -20 89 -74 152 -144 170 -49 12 -45 12 -101 0z
m142 -81 c14 -14 31 -42 39 -64 l13 -39 -145 -3 c-80 -1 -148 -1 -150 2 -18
17 45 101 92 122 46 21 121 12 151 -18z"/>
<path d="M5497 3896 c-28 -8 -63 -27 -83 -47 -37 -35 -74 -97 -74 -123 0 -9
-11 -16 -27 -18 -34 -4 -45 -37 -15 -45 15 -4 22 -19 30 -68 22 -135 84 -205
194 -220 55 -8 132 16 171 53 54 51 86 143 54 155 -21 8 -33 -4 -46 -44 -6
-19 -27 -50 -46 -69 -28 -27 -44 -34 -88 -38 -64 -5 -104 12 -142 62 -27 35
-53 142 -38 157 5 5 87 10 183 11 l175 3 3 36 c2 23 -5 55 -18 83 -23 47 -90
116 -114 116 -7 0 -26 2 -42 5 -16 2 -51 -2 -77 -9z m130 -66 c33 -20 50 -44
63 -91 l9 -29 -150 0 c-97 0 -149 4 -149 10 0 19 27 64 52 87 49 46 122 56
175 23z"/>
<path d="M1073 3216 c-101 -38 -171 -99 -219 -194 -23 -46 -26 -61 -22 -116 9
-112 77 -217 228 -350 176 -156 225 -216 239 -293 11 -57 7 -68 -29 -83 -50
-21 -93 2 -190 102 -100 102 -88 101 -190 22 -85 -65 -86 -66 -59 -121 13 -27
28 -53 33 -59 129 -140 169 -168 273 -194 79 -20 199 1 273 48 82 52 150 113
164 147 20 48 27 134 14 184 -35 139 -164 312 -317 425 -48 36 -104 93 -133
136 -24 34 -22 72 4 105 20 25 25 27 74 22 29 -3 64 -13 79 -23 27 -18 85 -95
85 -113 0 -25 37 -7 111 56 44 36 79 73 79 82 0 9 -33 50 -72 90 -84 85 -162
127 -260 141 -86 13 -94 12 -165 -14z m-31 -146 c-78 -77 -144 -140 -147 -140
-3 0 -5 10 -5 23 0 37 234 255 275 256 13 1 -25 -43 -123 -139z m218 134 c0
-4 -48 -54 -107 -113 -60 -58 -136 -137 -169 -175 -59 -66 -84 -77 -84 -37 0
21 177 208 265 280 53 44 95 64 95 45z m-265 -101 c-89 -86 -119 -96 -71 -23
26 40 70 78 121 104 55 29 40 4 -50 -81z m335 77 c0 -21 -122 -150 -148 -156
-44 -11 -90 -51 -98 -86 -4 -21 -29 -55 -72 -97 -60 -60 -65 -64 -78 -47 -12
17 -4 30 83 130 100 116 107 123 193 196 30 25 59 50 64 57 13 15 56 17 56 3z
m70 -37 c0 -24 -103 -123 -128 -123 -35 0 -26 27 29 86 53 55 99 73 99 37z
m50 -47 c0 -19 -108 -118 -123 -113 -20 6 -14 22 30 70 59 64 93 80 93 43z
m48 -49 c4 -21 -93 -117 -118 -117 -41 0 -32 24 30 82 63 59 82 66 88 35z m1
-84 c-32 -33 -89 -70 -89 -58 0 3 26 30 57 60 62 59 88 57 32 -2z m-602 -128
c11 -27 24 -58 28 -67 5 -13 3 -18 -8 -18 -27 0 -84 153 -72 194 2 6 7 25 11
41 7 26 9 21 14 -35 3 -36 15 -87 27 -115z m203 35 c0 -10 -102 -149 -110
-149 -3 -1 -11 3 -19 8 -18 11 -2 40 57 103 42 45 72 61 72 38z m-12 -120
c-56 -60 -88 -83 -88 -64 0 15 47 82 82 118 32 32 41 36 54 26 12 -11 6 -22
-48 -80z m101 26 c9 -11 -2 -27 -54 -80 -62 -65 -92 -79 -103 -49 -4 15 115
143 133 143 7 0 18 -6 24 -14z m44 -42 c8 -9 -26 -55 -85 -116 -51 -51 -63
-57 -71 -33 -4 9 20 40 65 85 72 70 79 75 91 64z m-279 -20 c4 -9 4 -19 2 -21
-8 -8 -26 8 -26 23 0 19 16 18 24 -2z m324 -26 c9 -9 -1 -25 -41 -67 -78 -84
-106 -106 -119 -93 -8 8 11 34 63 91 40 45 76 81 79 81 3 0 11 -5 18 -12z m60
-59 c4 -21 -144 -153 -163 -145 -25 9 -18 22 54 96 69 71 102 86 109 49z m52
-44 c0 -3 -33 -40 -74 -81 -70 -73 -96 -85 -96 -46 0 24 120 131 148 132 12 0
22 -2 22 -5z m32 -54 c-4 -11 -29 -43 -57 -73 -27 -29 -57 -64 -65 -77 l-16
-23 -14 27 c-14 27 -14 28 63 102 73 70 105 85 89 44z m-11 -119 c-58 -80 -86
-106 -100 -98 -20 12 11 65 77 133 51 53 66 64 70 50 2 -10 -18 -46 -47 -85z
m99 19 c0 -18 -100 -137 -143 -171 -40 -32 -63 -12 -29 26 9 10 46 56 81 102
51 66 66 80 77 71 8 -6 14 -19 14 -28z m34 -58 c5 -12 -10 -34 -52 -77 -32
-34 -88 -97 -123 -141 -35 -44 -83 -102 -107 -130 -23 -27 -47 -56 -53 -62
-11 -15 -39 -17 -39 -4 0 22 173 244 259 333 53 54 99 98 102 98 4 0 10 -8 13
-17z m16 -92 c0 -16 -3 -31 -7 -33 -7 -3 -243 -258 -264 -285 -5 -7 -19 -13
-30 -13 -18 0 -19 2 -4 29 8 17 19 33 25 36 5 3 46 50 90 105 80 99 167 190
182 190 4 0 8 -13 8 -29z m-650 -41 c-30 -37 -60 -53 -60 -30 0 6 -1 13 -1 17
-2 8 70 52 84 53 5 0 -6 -18 -23 -40z m100 30 c0 -14 -78 -112 -97 -124 -10
-5 -18 -4 -24 5 -14 22 -12 25 40 78 44 47 81 65 81 41z m40 -46 c0 -9 -21
-45 -46 -81 -37 -52 -48 -62 -60 -52 -8 6 -14 16 -14 21 0 9 35 57 80 110 18
22 40 23 40 2z m506 -41 c-15 -63 -60 -116 -134 -160 -39 -23 -72 -39 -72 -34
0 18 186 220 204 221 4 0 5 -12 2 -27z m-456 -3 c0 -17 -90 -135 -103 -135
-23 0 -7 47 35 96 38 46 68 63 68 39z m56 -34 c8 -22 -78 -140 -104 -144 -15
-2 -22 2 -22 13 0 33 86 145 112 145 5 0 11 -6 14 -14z m88 -35 c-10 -14 -24
-37 -32 -51 -23 -38 -84 -100 -98 -100 -25 0 -25 22 1 66 44 75 79 109 114
110 l31 1 -16 -26z"/>
<path d="M5408 3224 c-126 -30 -214 -99 -272 -213 -45 -86 -6 -220 98 -341 24
-28 28 -31 24 -12 -4 14 -2 22 6 22 7 0 18 10 24 23 23 47 103 137 122 137 13
0 20 -7 20 -17 -1 -20 -120 -153 -137 -153 -6 0 -13 -9 -16 -19 -3 -14 17 -39
81 -97 194 -179 222 -215 234 -312 5 -37 3 -45 -18 -58 -18 -12 -36 -15 -70
-9 -42 6 -56 16 -138 100 -77 78 -94 91 -108 82 -9 -7 -26 -19 -38 -27 -49
-32 -120 -91 -120 -98 0 -4 7 -18 16 -30 8 -12 12 -27 8 -34 -4 -7 -3 -8 4 -4
7 4 12 1 12 -8 0 -9 5 -16 10 -16 6 0 10 -6 10 -12 0 -17 116 -130 160 -155
61 -36 138 -56 189 -50 131 17 150 25 273 124 75 61 98 104 98 186 0 84 -56
217 -127 305 -50 62 -142 153 -182 181 -66 47 -161 149 -167 180 -8 40 12 88
39 95 84 22 158 -10 207 -90 18 -30 35 -54 39 -54 17 0 161 133 161 149 0 25
-116 144 -170 174 -63 36 -138 60 -172 55 -15 -3 -28 -1 -28 4 0 10 -1 10 -72
-8z m138 -15 c4 -7 -32 -49 -88 -103 -52 -50 -129 -129 -171 -175 -52 -57 -81
-82 -92 -78 -19 8 -19 5 5 -49 20 -43 20 -64 -1 -64 -5 0 -21 24 -35 53 -33
66 -42 158 -21 207 l15 35 1 -77 c1 -42 6 -80 11 -83 6 -3 10 0 10 7 0 26 320
338 347 338 6 0 15 -5 19 -11z m-138 -66 c-39 -38 -106 -103 -147 -145 -41
-43 -78 -78 -83 -78 -13 0 -9 57 5 72 23 23 171 156 197 177 14 11 30 25 35
30 6 6 22 10 38 11 25 0 22 -5 -45 -67z m-55 20 c-82 -79 -158 -143 -170 -143
-20 0 28 80 70 115 44 38 94 64 120 65 14 0 9 -9 -20 -37z m267 15 c0 -25
-125 -147 -170 -168 -42 -18 -80 -61 -80 -89 0 -6 -31 -43 -70 -81 -65 -66
-70 -69 -80 -50 -11 21 -5 60 9 60 5 0 43 41 86 90 104 122 247 250 280 250
14 0 25 -6 25 -12z m65 -24 c15 -16 11 -21 -50 -81 -65 -63 -96 -75 -103 -42
-3 18 106 139 125 139 6 0 19 -7 28 -16z m51 -49 c7 -17 -15 -46 -74 -100 -40
-36 -44 -37 -60 -22 -15 16 -12 21 43 77 61 61 81 71 91 45z m53 -49 c9 -11 1
-25 -41 -68 -62 -65 -80 -73 -102 -49 -16 17 -13 22 46 75 66 59 78 65 97 42z
m31 -55 c0 -11 -15 -32 -32 -47 -18 -15 -32 -31 -31 -35 2 -5 -4 -6 -12 -3 -8
4 -17 0 -20 -8 -5 -12 -45 -24 -45 -13 0 10 116 123 128 124 6 0 12 -8 12 -18z
m-430 -129 c0 -11 -10 -30 -21 -43 -12 -13 -33 -40 -48 -59 -39 -52 -50 -62
-61 -55 -25 15 -8 56 48 114 59 63 82 75 82 43z m84 -88 c9 -8 16 -18 16 -21
0 -3 -31 -37 -69 -74 -64 -64 -101 -85 -101 -58 0 6 -7 8 -17 5 -18 -7 3 20
54 70 12 12 19 24 17 27 -3 3 4 8 15 12 11 3 23 15 26 26 4 10 11 17 16 14 5
-4 9 -1 9 4 0 16 16 13 34 -5z m46 -64 c0 -16 -128 -160 -143 -160 -3 0 -11 9
-17 20 -9 17 0 29 66 95 74 73 94 83 94 45z m-266 -22 c-9 -14 -32 -8 -38 9
-9 23 15 35 30 15 7 -9 10 -20 8 -24z m323 -14 c2 -5 -32 -47 -75 -91 -70 -73
-80 -79 -96 -67 -17 12 -13 19 55 94 51 55 80 80 93 78 11 -2 21 -8 23 -14z
m49 -45 c18 -20 18 -21 -15 -47 -19 -14 -55 -45 -80 -69 -44 -42 -86 -54 -86
-25 0 13 142 162 155 162 4 0 15 -9 26 -21z m49 -49 c7 -12 -132 -160 -151
-160 -6 0 -17 6 -23 14 -9 10 4 28 61 85 70 68 99 83 113 61z m43 -53 c2 -9
-11 -28 -28 -44 -18 -15 -51 -53 -74 -84 -42 -55 -43 -56 -59 -36 -9 12 -17
26 -17 33 0 17 149 156 163 151 7 -2 13 -11 15 -20z m23 -71 c-22 -39 -123
-159 -138 -164 -18 -5 -16 48 3 73 8 11 43 50 77 86 48 50 63 62 68 50 4 -9
-1 -29 -10 -45z m58 -20 c12 -21 9 -27 -36 -77 -58 -64 -135 -139 -145 -139
-18 0 -11 46 12 70 14 14 50 58 80 97 30 40 60 73 66 73 6 0 16 -11 23 -24z
m32 -68 c3 -28 -4 -42 -33 -66 -25 -21 -101 -110 -136 -157 -7 -10 -123 -146
-132 -155 -3 -3 -10 -14 -16 -25 -13 -24 -64 -34 -64 -12 0 8 9 22 20 32 12
10 30 35 42 54 39 64 121 165 208 253 82 84 109 102 111 76z m-620 -130 c-62
-62 -83 -67 -79 -18 1 16 5 27 9 24 10 -6 110 52 102 60 -4 4 1 4 10 0 15 -5
8 -16 -42 -66z m117 53 c3 -8 -1 -12 -9 -9 -7 2 -15 10 -17 17 -3 8 1 12 9 9
7 -2 15 -10 17 -17z m522 -17 c0 -16 -20 -46 -58 -86 -121 -130 -169 -184
-191 -215 -17 -25 -30 -33 -52 -33 -16 0 -29 4 -29 10 0 5 21 34 48 63 26 29
63 73 82 97 61 76 183 200 191 194 5 -3 9 -16 9 -30z m-530 -31 c0 -18 10 -16
25 3 11 16 12 16 18 1 4 -10 2 -16 -6 -14 -7 1 -11 -6 -10 -17 1 -10 -9 -30
-22 -44 -13 -14 -22 -29 -19 -34 3 -4 1 -8 -5 -8 -5 0 -19 -13 -31 -30 -18
-25 -19 -30 -6 -30 9 0 16 5 16 10 0 6 9 20 20 32 11 12 20 28 20 35 0 9 5 11
13 7 6 -4 9 -4 5 1 -8 8 15 35 29 35 5 0 14 -5 20 -11 8 -8 -3 -29 -39 -77
-28 -37 -55 -70 -61 -73 -5 -4 -6 -13 -2 -20 5 -8 -1 -6 -13 5 -12 10 -19 23
-16 28 3 5 -6 18 -20 29 -14 11 -26 25 -26 31 0 10 52 81 80 108 8 8 16 20 17
27 4 21 -22 4 -40 -25 -9 -15 -30 -43 -47 -62 -30 -34 -31 -34 -45 -16 -8 11
-15 23 -15 26 0 4 28 35 61 69 59 59 62 61 80 45 11 -9 19 -23 19 -31z m95
-44 c12 -19 -5 -23 -22 -6 -16 16 -16 17 -1 17 9 0 20 -5 23 -11z m435 -3 c0
-20 -37 -99 -60 -129 -11 -14 -41 -36 -65 -48 -25 -13 -53 -30 -64 -40 -10 -9
-23 -14 -30 -10 -12 8 47 80 153 188 53 55 66 62 66 39z m-400 -64 c0 -13 -80
-135 -106 -161 -7 -7 -34 21 -34 36 0 8 9 28 21 44 11 16 18 29 14 29 -3 0 11
16 31 35 39 38 74 46 74 17z m54 -78 c-60 -90 -95 -118 -119 -100 -17 12 -15
17 27 82 51 78 63 90 98 96 44 7 42 -7 -6 -78z"/>
<path d="M1812 3203 l-153 -4 3 -132 3 -132 103 -3 103 -3 13 -32 c8 -18 19
-97 25 -177 11 -144 13 -264 10 -515 0 -38 0 -114 0 -167 l1 -98 139 0 c82 0
142 4 146 10 3 5 9 87 12 182 4 128 1 208 -11 308 -9 74 -19 214 -23 311 -7
204 -19 183 114 194 51 4 87 12 94 21 12 14 6 214 -6 234 -6 9 -187 10 -573 3z
m363 -33 c16 0 12 -6 -19 -33 -22 -17 -63 -54 -93 -81 -95 -87 -173 -135 -173
-107 0 5 37 45 82 88 45 43 96 93 113 110 20 22 37 31 50 28 11 -3 29 -5 40
-5z m105 -25 c-19 -19 -52 -47 -74 -62 -23 -16 -45 -33 -51 -39 -5 -7 -57 -46
-113 -89 -80 -59 -106 -75 -115 -65 -9 9 -6 17 14 33 15 12 73 60 129 107 57
47 119 100 139 117 26 23 46 33 70 33 l35 0 -34 -35z m-220 18 c0 -9 -213
-213 -222 -213 -13 0 -9 10 28 65 44 67 141 155 172 155 12 0 22 -3 22 -7z
m-146 -55 c-27 -29 -65 -74 -84 -100 -33 -45 -64 -67 -77 -54 -8 8 42 71 114
143 79 78 118 87 47 11z m-144 34 c0 -4 -12 -20 -27 -36 -25 -27 -27 -28 -34
-10 -8 23 16 54 43 54 10 0 18 -3 18 -8z m101 -9 c-5 -10 -39 -46 -75 -81 -36
-35 -66 -68 -66 -73 0 -5 -4 -9 -10 -9 -5 0 -10 15 -10 33 0 24 12 46 52 90
43 48 56 57 85 57 29 0 32 -2 24 -17z m479 4 c0 -18 -156 -167 -176 -167 -18
0 -131 -86 -201 -154 l-43 -40 0 35 c0 29 6 38 33 53 17 11 48 33 68 50 20 17
65 52 100 79 35 26 95 72 134 102 73 57 85 63 85 42z m-27 -133 c-15 -13 -41
-23 -58 -23 l-30 -1 55 52 55 53 3 -29 c3 -22 -3 -35 -25 -52z m37 -14 c0 -5
-7 -10 -16 -10 -8 0 -12 5 -9 10 3 6 10 10 16 10 5 0 9 -4 9 -10z m-210 -99
c0 -12 -32 -46 -82 -88 -45 -37 -90 -76 -100 -85 -40 -40 -54 -1 -15 43 36 41
169 149 184 149 7 0 13 -9 13 -19z m10 -89 c0 -9 -13 -28 -28 -41 -42 -36
-174 -131 -183 -131 -25 0 -12 24 39 71 137 128 172 149 172 101z m0 -92 c0
-13 -20 -35 -52 -60 -146 -110 -150 -112 -159 -98 -5 7 -9 16 -9 20 0 18 183
157 208 158 6 0 12 -9 12 -20z m-4 -95 c-1 -14 -11 -34 -22 -46 -19 -21 -161
-109 -176 -109 -5 0 -8 10 -8 23 1 16 24 39 97 90 52 37 99 67 104 67 4 0 6
-11 5 -25z m4 -89 c0 -17 -14 -32 -57 -60 -32 -20 -73 -48 -92 -62 -43 -30
-61 -31 -61 -1 0 19 11 29 51 48 29 13 74 41 102 61 28 21 52 38 54 38 2 0 3
-11 3 -24z m-32 -128 c-36 -31 -164 -118 -173 -118 -3 0 -5 13 -5 30 0 24 6
32 33 44 17 7 43 25 56 40 14 14 28 26 33 26 5 0 26 11 46 25 l37 25 3 -22 c3
-15 -6 -30 -30 -50z m32 -47 c0 -33 -45 -75 -138 -130 -65 -38 -72 -38 -72 -3
0 23 11 34 68 70 37 23 81 53 97 67 39 32 45 31 45 -4z m40 8 c0 -6 -4 -7 -10
-4 -5 3 -10 11 -10 16 0 6 5 7 10 4 6 -3 10 -11 10 -16z m-40 -93 c0 -8 -6
-16 -12 -19 -7 -3 -44 -28 -82 -56 -111 -84 -116 -87 -116 -64 0 11 10 25 23
31 12 7 56 36 97 66 81 59 90 63 90 42z m37 -48 c-3 -8 -6 -5 -6 6 -1 11 2 17
5 13 3 -3 4 -12 1 -19z m-32 -27 c-3 -6 -32 -28 -63 -47 -31 -20 -76 -54 -99
-75 -49 -44 -53 -46 -53 -20 0 24 199 176 213 162 5 -5 6 -14 2 -20z m3 -58
c-5 -27 -166 -153 -196 -153 -25 0 -25 0 -6 21 23 26 186 148 197 149 5 0 7
-8 5 -17z m-35 -125 c-31 -31 -46 -39 -68 -36 -28 3 -27 4 36 56 50 41 65 49
67 36 2 -9 -14 -34 -35 -56z"/>
<path d="M2832 3183 c-18 -34 -128 -326 -216 -578 -44 -124 -81 -216 -112
-278 -8 -16 -14 -33 -14 -39 0 -5 -13 -39 -30 -74 -16 -35 -41 -98 -56 -139
-15 -41 -31 -75 -35 -75 -11 0 -12 -40 -1 -41 4 0 27 -2 52 -4 25 -2 80 -7
123 -12 52 -6 80 -6 85 1 3 6 19 49 35 96 25 71 36 96 63 138 8 13 161 21 317
15 l189 -6 13 -31 c7 -17 26 -64 41 -104 43 -112 28 -105 192 -95 78 5 145 12
148 16 4 4 -14 52 -40 108 -43 89 -83 193 -133 339 -8 25 -52 126 -98 225 -45
99 -91 205 -100 235 -35 108 -134 293 -163 305 -9 4 -70 9 -134 12 -105 3
-118 2 -126 -14z m12 -47 c-3 -14 -10 -26 -15 -26 -4 0 -3 14 3 31 12 36 22
33 12 -5z m109 15 c-38 -34 -101 -81 -107 -81 -3 0 -6 4 -6 9 0 13 103 90 113
84 5 -3 5 -8 0 -12z m81 13 c25 -9 20 -18 -31 -54 -27 -19 -85 -65 -130 -103
-71 -58 -83 -65 -83 -46 0 25 60 85 159 160 36 27 66 49 67 49 1 0 9 -3 18 -6z
m76 -39 c11 -13 8 -20 -21 -45 -19 -16 -38 -29 -42 -30 -16 0 -193 -142 -259
-208 -40 -40 -54 -39 -39 1 16 43 52 82 141 157 55 45 190 139 201 140 4 0 12
-7 19 -15z m-309 -82 c-8 -15 -10 -15 -11 -2 0 17 10 32 18 25 2 -3 -1 -13 -7
-23z m339 9 c0 -11 -24 -33 -62 -57 -54 -35 -139 -101 -311 -242 -54 -45 -67
-51 -67 -32 0 12 102 115 165 166 126 102 173 137 202 151 18 9 33 19 33 24 0
4 9 8 20 8 13 0 20 -7 20 -18z m40 -71 c-1 -12 -174 -131 -189 -131 -9 0 -23
5 -31 10 -20 12 -11 21 105 100 82 55 91 59 102 43 7 -9 13 -19 13 -22z m-410
-31 c-17 -52 -25 -44 -9 9 7 23 14 39 17 36 3 -3 -1 -23 -8 -45z m440 -30 c7
-17 11 -32 9 -34 -2 -1 -40 -30 -85 -64 -44 -34 -85 -62 -91 -62 -15 0 -38 59
-27 69 29 27 161 121 170 121 6 0 17 -14 24 -30z m-297 -112 c-28 -52 -76 -95
-197 -178 -32 -22 -61 -38 -63 -36 -14 14 40 73 149 163 67 56 127 102 131
102 5 1 -4 -22 -20 -51z m327 1 c-11 -20 -149 -119 -166 -119 -7 0 -14 10 -17
22 -7 24 -7 24 98 99 63 45 71 48 82 33 8 -11 9 -23 3 -35z m-516 14 c-7 -30
-24 -55 -24 -36 0 17 18 63 25 63 3 0 2 -12 -1 -27z m233 -15 c-45 -114 -60
-147 -67 -143 -7 4 11 57 47 143 3 6 10 12 15 12 6 0 8 -6 5 -12z m51 -63 c60
-116 112 -234 112 -254 0 -21 -2 -22 -136 -20 -121 1 -135 3 -131 17 15 49 68
184 91 232 14 30 26 62 26 70 0 19 12 5 38 -45z m266 10 c4 -14 4 -30 2 -34
-6 -9 -164 -131 -170 -131 -9 0 -26 64 -19 71 29 27 160 119 169 119 7 0 15
-11 18 -25z m-588 -31 c-4 -9 -9 -15 -11 -12 -3 3 -3 13 1 22 4 9 9 15 11 12
3 -3 3 -13 -1 -22z m184 -26 c-1 -22 -23 -53 -65 -90 -49 -44 -187 -139 -193
-134 -2 3 -1 17 2 33 5 19 24 41 63 68 31 22 84 61 117 87 65 50 76 55 76 36z
m360 -120 c-78 -77 -84 -80 -97 -62 -25 34 -10 57 77 123 80 61 85 62 94 42 8
-18 -2 -32 -74 -103z m-364 5 c-11 -21 -15 -23 -16 -10 0 24 22 65 27 50 2 -6
-3 -24 -11 -40z m469 20 c0 -7 -31 -45 -70 -85 -38 -41 -114 -120 -167 -175
-89 -95 -148 -135 -148 -103 0 15 95 134 135 170 15 14 70 67 122 118 60 60
99 92 111 90 9 -2 17 -9 17 -15z m-510 -36 c-4 -15 -28 -46 -53 -69 -47 -44
-174 -138 -186 -138 -8 0 -8 34 0 54 3 9 43 40 88 69 44 30 96 68 115 85 39
36 45 35 36 -1z m535 -11 c0 -2 3 -11 6 -19 3 -10 -11 -32 -38 -60 -24 -24
-77 -81 -118 -127 -41 -46 -83 -92 -92 -102 -18 -18 -63 -24 -72 -10 -10 16
277 322 301 322 7 0 13 -2 13 -4z m34 -82 c13 -33 5 -52 -41 -96 -27 -26 -70
-69 -96 -97 -40 -43 -54 -51 -84 -51 -32 0 -34 2 -22 18 54 70 217 242 229
242 5 0 11 -7 14 -16z m-601 -22 c-6 -26 -247 -211 -259 -200 -12 13 32 67 78
98 29 19 82 57 117 83 35 26 65 46 67 45 2 -2 1 -14 -3 -26z m91 -10 c5 -8
-345 -294 -391 -320 -26 -14 -28 -7 -10 36 12 29 126 121 297 239 75 52 94 60
104 45z m90 0 c3 -5 -21 -31 -52 -59 -67 -59 -237 -202 -304 -256 -26 -21 -53
-43 -60 -50 -29 -27 -103 -77 -115 -77 -33 0 0 62 51 97 41 28 384 299 421
332 22 20 51 26 59 13z m93 -9 c2 -6 -5 -20 -17 -31 -11 -11 -32 -35 -46 -53
-14 -19 -42 -53 -64 -75 -34 -36 -46 -42 -92 -47 -29 -2 -55 -3 -57 -1 -7 6
30 43 129 129 111 96 137 109 147 78z m383 -38 c0 -8 -2 -15 -4 -15 -2 0 -6 7
-10 15 -3 8 -1 15 4 15 6 0 10 -7 10 -15z m-892 -22 c-14 -34 -35 -58 -23 -28
4 11 10 28 12 38 3 9 9 17 14 17 5 0 3 -12 -3 -27z m873 -7 c7 -24 3 -32 -22
-54 -17 -14 -51 -47 -76 -74 -26 -26 -52 -48 -59 -48 -20 0 -27 39 -11 63 26
39 139 148 150 144 6 -2 14 -16 18 -31z m-901 -64 c0 -5 -7 -17 -15 -28 -14
-18 -14 -17 -4 9 12 27 19 34 19 19z m933 -22 c4 -15 -12 -34 -66 -82 -40 -35
-78 -69 -86 -76 -12 -12 -16 -11 -23 2 -5 9 -6 24 -3 34 10 24 153 154 164
148 5 -3 11 -15 14 -26z m33 -77 c5 -20 3 -30 -10 -37 -10 -6 -42 -34 -71 -62
-29 -29 -62 -57 -74 -63 -18 -10 -21 -8 -27 16 -7 25 0 34 72 100 43 40 84 73
91 73 7 0 16 -12 19 -27z m24 -63 c0 -13 -98 -109 -135 -132 -36 -22 -45 -23
-45 -3 0 8 4 15 8 15 4 0 33 24 63 53 68 67 109 92 109 67z m-860 -40 c-17
-42 -121 -130 -153 -130 -40 0 -38 12 5 45 22 17 64 52 95 78 30 27 57 46 60
43 3 -3 0 -19 -7 -36z m-228 -22 c-7 -7 -12 -8 -12 -2 0 6 3 14 7 17 3 4 9 5
12 2 2 -3 -1 -11 -7 -17z m1112 6 c4 -11 -7 -30 -31 -55 -30 -31 -45 -39 -73
-39 l-35 0 55 55 c58 58 74 65 84 39z m33 -72 c10 -17 7 -19 -29 -20 -40 -2
-41 -2 -23 18 23 25 37 25 52 2z m-957 -8 c0 -16 -23 -44 -35 -44 -19 0 -19 9
2 32 16 17 33 24 33 12z"/>
<path d="M3859 3193 l-127 -4 4 -612 c3 -337 6 -617 8 -622 2 -7 45 -8 124 -3
123 7 174 22 186 53 11 29 6 593 -8 795 -7 107 -11 213 -9 235 8 107 5 136
-14 150 -10 8 -22 14 -28 13 -5 -2 -67 -4 -136 -5z m101 -37 c0 -7 -24 -35
-52 -62 -29 -27 -70 -69 -90 -93 -36 -43 -38 -43 -38 -19 0 19 21 49 78 107
74 78 102 96 102 67z m-130 1 c0 -2 -11 -14 -25 -27 l-25 -23 0 26 c0 22 5 27
25 27 14 0 25 -1 25 -3z m60 -2 c0 -3 -25 -31 -55 -61 -38 -38 -55 -51 -55
-39 0 19 81 105 99 105 6 0 11 -2 11 -5z m120 -33 c0 -9 -34 -50 -74 -90 -40
-40 -86 -91 -102 -112 -37 -50 -54 -57 -54 -23 0 30 87 142 164 208 50 44 66
48 66 17z m-83 -184 c-40 -40 -92 -95 -115 -123 -34 -41 -41 -46 -42 -29 0 27
53 99 150 200 71 75 75 78 78 52 3 -22 -10 -40 -71 -100z m73 0 c-1 -28 -18
-50 -109 -145 -60 -62 -112 -113 -115 -113 -3 0 -6 8 -6 19 0 28 71 129 135
191 31 30 61 60 68 67 20 20 27 15 27 -19z m-243 -60 c-2 -18 -4 -6 -4 27 0
33 2 48 4 33 2 -15 2 -42 0 -60z m206 -102 c-21 -16 -71 -63 -110 -104 -54
-55 -73 -69 -73 -54 0 25 42 78 138 175 l77 77 3 -32 c3 -28 -2 -37 -35 -62z
m47 -42 c0 -33 -10 -46 -107 -140 -60 -57 -111 -104 -115 -104 -5 0 -8 16 -8
34 0 40 58 116 149 199 65 57 81 60 81 11z m0 -103 c0 -31 -19 -55 -80 -105
-19 -15 -58 -50 -86 -77 -29 -27 -55 -49 -58 -49 -3 0 -6 10 -6 22 0 14 38 59
108 130 60 59 112 108 115 108 4 0 7 -13 7 -29z m17 -93 c-3 -7 -5 -2 -5 12 0
14 2 19 5 13 2 -7 2 -19 0 -25z m-17 -5 c0 -22 -22 -49 -105 -130 -58 -57
-110 -103 -115 -103 -22 0 -8 50 26 94 33 44 170 166 187 166 4 0 7 -12 7 -27z
m29 -100 c1 -12 -3 -25 -9 -28 -6 -4 -10 12 -9 42 0 36 3 43 9 28 5 -11 9 -30
9 -42z m-29 -6 c0 -29 -12 -43 -99 -122 -55 -50 -106 -90 -113 -90 -7 0 -14 8
-16 19 -3 13 27 50 99 122 57 57 109 104 116 104 8 0 13 -13 13 -33z m30 -71
c0 -14 -4 -28 -10 -31 -6 -4 -10 7 -10 24 0 17 5 31 10 31 6 0 10 -11 10 -24z
m-77 -91 c-21 -16 -68 -61 -105 -99 l-68 -70 0 35 c0 43 -4 37 110 139 l95 84
3 -29 c3 -25 -3 -35 -35 -60z m64 -12 c-3 -10 -5 -4 -5 12 0 17 2 24 5 18 2
-7 2 -21 0 -30z m-17 -12 c0 -26 -200 -215 -213 -202 -18 18 45 99 142 184 48
41 71 47 71 18z m-243 -48 c-3 -10 -5 -4 -5 12 0 17 2 24 5 18 2 -7 2 -21 0
-30z m270 -100 c-2 -21 -4 -4 -4 37 0 41 2 58 4 38 2 -21 2 -55 0 -75z m-27
69 c0 -22 -17 -46 -77 -105 -79 -80 -107 -97 -126 -78 -9 9 14 37 88 110 55
54 103 99 108 99 4 1 7 -11 7 -26z m-241 -59 c0 -34 -1 -36 -11 -16 -6 12 -8
29 -5 37 11 27 17 18 16 -21z m239 -50 c-3 -42 -6 -48 -40 -65 -20 -11 -47
-18 -59 -16 -19 3 -16 9 32 65 30 34 58 62 62 62 4 1 7 -20 5 -46z m-228 -34
c0 -11 -4 -17 -10 -14 -5 3 -10 15 -10 26 0 11 5 17 10 14 6 -3 10 -15 10 -26z"/>
<path d="M4344 3178 c-22 -4 -64 -7 -94 -6 -53 2 -55 1 -61 -28 -12 -56 -9
-350 6 -509 8 -88 15 -255 15 -371 0 -275 3 -299 44 -316 30 -13 231 -16 243
-4 9 9 4 295 -7 399 -6 54 -9 101 -7 103 11 11 86 -114 178 -297 l100 -200 57
7 c31 4 93 10 137 13 72 5 80 8 79 26 -3 39 -51 153 -71 170 -17 14 -93 154
-93 171 0 8 -4 14 -8 14 -5 0 -18 17 -30 38 -11 21 -30 48 -41 61 -30 34 -26
48 19 71 61 31 130 152 151 264 13 72 -52 271 -98 299 -7 4 -13 13 -13 20 0 7
-20 20 -45 30 -25 11 -45 23 -45 27 0 18 -340 32 -416 18z m120 -36 c-10 -9
-41 -34 -69 -54 -27 -20 -72 -60 -99 -90 -32 -34 -51 -48 -54 -40 -8 26 23 65
98 124 41 32 80 62 85 68 6 5 21 9 34 10 24 0 24 0 5 -18z m56 -23 c-25 -23
-79 -66 -120 -97 -41 -31 -93 -74 -115 -94 -66 -62 -51 -18 17 51 76 77 215
181 243 180 16 0 11 -8 -25 -40z m-135 23 c-6 -5 -30 -24 -55 -43 -25 -18 -51
-42 -58 -51 -17 -23 -32 -23 -32 0 1 18 114 102 139 102 9 0 11 -3 6 -8z m255
0 c0 -5 -28 -29 -62 -54 -35 -26 -72 -55 -83 -65 -11 -10 -58 -50 -105 -89
-47 -39 -94 -83 -105 -97 -25 -34 -35 -34 -35 1 0 33 79 115 175 181 33 23 84
62 113 86 47 41 102 60 102 37z m-415 -292 c3 -157 8 -295 11 -307 6 -21 9
-19 54 25 26 26 73 68 105 94 47 40 60 46 76 37 17 -9 18 -12 6 -29 -21 -30
-217 -171 -228 -165 -5 4 -9 -2 -9 -11 0 -11 -3 -14 -9 -8 -5 5 -15 88 -21
184 -18 253 -15 489 5 468 2 -2 6 -131 10 -288z m85 279 c-8 -5 -27 -16 -42
-25 -27 -14 -28 -14 -28 11 0 23 4 25 43 25 32 0 38 -3 27 -11z m334 -71 c-75
-79 -80 -82 -118 -79 -23 2 -42 4 -44 6 -8 8 196 153 217 154 20 1 12 -11 -55
-81z m56 -18 c-69 -77 -92 -92 -105 -70 -10 16 154 175 167 162 8 -8 -10 -35
-62 -92z m111 53 c-26 -47 -124 -153 -142 -153 -32 0 -22 19 53 96 67 70 112
98 89 57z m39 -25 c0 -13 -68 -104 -105 -138 -18 -16 -28 -21 -36 -13 -7 7 9
33 53 87 59 71 88 92 88 64z m43 -70 c4 -15 -7 -34 -42 -72 -26 -28 -56 -61
-67 -73 -24 -30 -30 -29 -38 8 -5 27 2 40 55 105 64 76 79 82 92 32z m-443
-78 c0 -16 -6 -33 -14 -37 -8 -5 -51 -41 -95 -81 -44 -39 -82 -72 -84 -72 -3
0 -7 9 -10 20 -4 15 14 38 75 98 44 42 86 82 92 89 20 22 36 14 36 -17z m470
15 c0 -27 -390 -400 -527 -504 l-131 -99 -4 30 c-4 25 2 35 40 66 25 21 66 55
91 78 25 22 100 80 166 127 116 84 198 157 297 266 47 52 68 63 68 36z m-252
-28 c75 -48 75 -101 1 -153 -31 -21 -51 -26 -108 -29 l-71 -3 -1 52 c0 28 -4
74 -8 101 -5 28 -6 54 -4 59 3 4 38 6 77 4 56 -3 80 -9 114 -31z m270 -73 c3
-49 2 -51 -43 -83 -56 -40 -198 -162 -283 -244 -52 -49 -67 -59 -80 -50 -32
20 -22 39 58 113 45 41 136 130 203 197 67 67 127 121 132 119 6 -1 11 -25 13
-52z m-488 6 c0 -11 -10 -28 -22 -38 -12 -9 -53 -47 -91 -84 -38 -38 -74 -68
-78 -68 -5 0 -9 10 -9 22 0 24 105 133 162 168 40 24 38 24 38 0z m10 -79 c0
-18 -24 -42 -120 -121 -96 -78 -90 -75 -90 -54 0 34 181 210 202 198 5 -3 8
-13 8 -23z m437 -94 c-27 -54 -48 -81 -81 -105 -29 -21 -46 -28 -48 -20 -5 13
-110 -65 -157 -116 -26 -27 -47 -33 -53 -15 -4 12 73 93 128 135 19 15 54 46
77 69 52 51 160 136 166 130 2 -3 -12 -38 -32 -78z m-300 20 c-61 -41 -184
-130 -192 -140 -28 -34 -128 -117 -141 -117 -8 0 -14 8 -14 19 0 19 50 64 135
121 28 18 70 52 95 75 45 43 64 52 110 53 23 1 23 0 7 -11z m149 -208 c18 -20
18 -21 -32 -67 -99 -92 -108 -96 -126 -57 -11 24 -8 28 28 58 21 18 52 44 69
59 36 33 37 33 61 7z m-323 -92 c-50 -46 -91 -78 -130 -106 l-33 -22 0 25 c0
21 18 39 93 94 68 52 94 66 100 56 5 -9 -5 -25 -30 -47z m307 -46 c-70 -78
-83 -86 -100 -66 -17 21 -13 26 69 94 99 83 116 67 31 -28z m-270 7 c0 -29 -8
-39 -66 -83 -78 -59 -116 -85 -126 -85 -19 0 -5 49 20 72 38 37 155 128 165
128 4 0 7 -15 7 -32z m355 2 c5 -16 -9 -38 -60 -96 -62 -68 -68 -73 -81 -57
-23 30 -16 45 48 110 67 67 83 75 93 43z m32 -68 c14 -23 14 -22 -69 -100 -65
-62 -67 -63 -78 -42 -11 20 -6 29 56 91 38 38 71 69 74 69 3 0 10 -8 17 -18z
m-370 -26 c-4 -30 -23 -53 -57 -71 -15 -8 -51 -35 -81 -60 -63 -54 -79 -57
-79 -12 1 29 10 39 93 99 100 73 130 83 124 44z m411 -47 c1 -8 -31 -47 -71
-87 -73 -72 -73 -73 -84 -49 -10 22 -7 30 31 71 68 76 117 101 124 65z m-412
-51 c-1 -30 -9 -37 -79 -79 -42 -25 -85 -53 -95 -62 -10 -10 -21 -17 -24 -17
-12 0 -16 41 -5 50 88 72 184 139 198 140 3 0 6 -15 5 -32z m453 -6 c7 -14 -5
-32 -66 -96 -69 -73 -75 -77 -88 -60 -8 11 -15 24 -15 30 0 15 132 144 147
144 7 0 17 -8 22 -18z m-692 -99 c-2 -16 -4 -5 -4 22 0 28 2 40 4 28 2 -13 2
-35 0 -50z m728 36 c7 -20 -6 -42 -49 -81 -20 -19 -76 -25 -76 -8 0 12 98 110
110 110 5 0 12 -9 15 -21z m-485 -13 c0 -17 -98 -105 -125 -112 -11 -3 -31 -1
-44 4 l-24 9 32 29 c34 30 127 83 149 84 6 0 12 -6 12 -14z m518 -59 c3 -12
-4 -17 -22 -17 -28 0 -33 9 -14 28 15 15 32 10 36 -11z m-518 -18 c0 -12 -42
-29 -54 -21 -5 2 2 13 15 23 23 17 39 17 39 -2z"/>
<path d="M652 290 c0 -14 2 -19 5 -12 2 6 2 18 0 25 -3 6 -5 1 -5 -13z"/>
<path d="M800 291 c0 -11 3 -22 8 -24 4 -3 7 6 7 19 0 13 -3 24 -7 24 -5 0 -8
-9 -8 -19z"/>
<path d="M1052 290 c0 -14 2 -19 5 -12 2 6 2 18 0 25 -3 6 -5 1 -5 -13z"/>
<path d="M261 284 c0 -11 3 -14 6 -6 3 7 2 16 -1 19 -3 4 -6 -2 -5 -13z"/>
<path d="M381 284 c0 -11 3 -14 6 -6 3 7 2 16 -1 19 -3 4 -6 -2 -5 -13z"/>
<path d="M401 284 c0 -11 3 -14 6 -6 3 7 2 16 -1 19 -3 4 -6 -2 -5 -13z"/>
<path d="M451 284 c0 -11 3 -14 6 -6 3 7 2 16 -1 19 -3 4 -6 -2 -5 -13z"/>
<path d="M501 284 c0 -11 3 -14 6 -6 3 7 2 16 -1 19 -3 4 -6 -2 -5 -13z"/>
<path d="M591 284 c0 -11 3 -14 6 -6 3 7 2 16 -1 19 -3 4 -6 -2 -5 -13z"/>
<path d="M623 286 c-9 -11 -9 -15 0 -19 7 -3 14 3 14 14 2 22 2 22 -14 5z"/>
<path d="M671 284 c0 -11 3 -14 6 -6 3 7 2 16 -1 19 -3 4 -6 -2 -5 -13z"/>
<path d="M844 285 c1 -8 6 -18 11 -22 4 -4 5 -3 2 4 -4 6 -2 13 5 15 8 3 6 6
-4 10 -10 4 -15 2 -14 -7z"/>
<path d="M1011 284 c0 -11 3 -14 6 -6 3 7 2 16 -1 19 -3 4 -6 -2 -5 -13z"/>
<path d="M341 274 c0 -11 3 -14 6 -6 3 7 2 16 -1 19 -3 4 -6 -2 -5 -13z"/>
</g>
</svg>
